<?xml version="1.0" encoding="UTF-8"?>
<svg width="20px" height="20px" viewBox="0 0 20 20" version="1.1" xmlns="http://www.w3.org/2000/svg" xmlns:xlink="http://www.w3.org/1999/xlink">
    <!-- Generator: Sketch 46.2 (44496) - http://www.bohemiancoding.com/sketch -->
    <title>@2xBookings active</title>
    <desc>Created with Sketch.</desc>
    <defs></defs>
    <g id="Page-1" stroke="none" stroke-width="1" fill="none" fill-rule="evenodd">
        <g id="Bookings-active">
            <polygon id="Fill-1" fill="#FFFFFF" points="-5.32907052e-15 20 20 20 20 2 -5.32907052e-15 2"></polygon>
            <path d="M0.5,19.5 L19.5,19.5 L19.5,2.5 L0.5,2.5 L0.5,19.5 Z" id="Stroke-3" stroke="#128EC2"></path>
            <path d="M1.77635684e-15,7 L20,7" id="Stroke-5" stroke="#128EC2"></path>
            <path d="M6,-0.000190454552 L6,4.99980955" id="Stroke-6" stroke="#128EC2"></path>
            <path d="M14,-0.000190454552 L14,4.99980955" id="Stroke-7" stroke="#128EC2"></path>
            <path d="M6.13257143,11.1890145 C6.13257143,11.8137054 5.62685714,12.3193623 5.00209524,12.3193623 C4.37733333,12.3193623 3.87066667,11.8137054 3.87066667,11.1890145 C3.87066667,10.5643236 4.37733333,10.0586667 5.00209524,10.0586667 C5.62685714,10.0586667 6.13257143,10.5643236 6.13257143,11.1890145" id="Fill-8" fill="#FD7F10"></path>
            <path d="M11.1307619,11.1890145 C11.1307619,11.8137054 10.6250476,12.3193623 10.0002857,12.3193623 C9.37552381,12.3193623 8.86885714,11.8137054 8.86885714,11.1890145 C8.86885714,10.5643236 9.37552381,10.0586667 10.0002857,10.0586667 C10.6250476,10.0586667 11.1307619,10.5643236 11.1307619,11.1890145" id="Fill-9" fill="#FD7F10"></path>
            <path d="M6.13257143,15.047338 C6.13257143,15.672029 5.62685714,16.1776858 5.00209524,16.1776858 C4.37733333,16.1776858 3.87066667,15.672029 3.87066667,15.047338 C3.87066667,14.4226471 4.37733333,13.9169903 5.00209524,13.9169903 C5.62685714,13.9169903 6.13257143,14.4226471 6.13257143,15.047338" id="Fill-10" fill="#FD7F10"></path>
            <path d="M11.1307619,15.047338 C11.1307619,15.672029 10.6250476,16.1776858 10.0002857,16.1776858 C9.37552381,16.1776858 8.86885714,15.672029 8.86885714,15.047338 C8.86885714,14.4226471 9.37552381,13.9169903 10.0002857,13.9169903 C10.6250476,13.9169903 11.1307619,14.4226471 11.1307619,15.047338" id="Fill-11" fill="#FD7F10"></path>
            <path d="M16.1288571,11.1890145 C16.1288571,11.8137054 15.6231429,12.3193623 14.998381,12.3193623 C14.373619,12.3193623 13.8669524,11.8137054 13.8669524,11.1890145 C13.8669524,10.5643236 14.373619,10.0586667 14.998381,10.0586667 C15.6231429,10.0586667 16.1288571,10.5643236 16.1288571,11.1890145" id="Fill-12" fill="#FD7F10"></path>
        </g>
    </g>
</svg>