<?xml version="1.0" encoding="UTF-8"?>
<svg width="20px" height="20px" viewBox="0 0 20 20" version="1.1" xmlns="http://www.w3.org/2000/svg" xmlns:xlink="http://www.w3.org/1999/xlink">
    <!-- Generator: Sketch 46.2 (44496) - http://www.bohemiancoding.com/sketch -->
    <title>@2xDashboard</title>
    <desc>Created with Sketch.</desc>
    <defs></defs>
    <g id="Page-1" stroke="none" stroke-width="1" fill="none" fill-rule="evenodd">
        <g id="Dashboard">
            <path d="M10.014381,5.74066667 C10.014381,5.74066667 11.8067619,11.2920952 11.8077143,12.2844762 C11.809619,13.2778095 11.0181905,14.0711429 10.0248571,14.0720952 C9.03152381,14.074 8.23914286,13.2825714 8.2372381,12.2892381 C8.23628571,11.2959048 10.014381,5.74066667 10.014381,5.74066667" id="Fill-3" fill="#5C5D61"></path>
            <path d="M3.64809524,18.0770476 C5.3347619,16.5637143 7.55571429,15.6341905 9.99761905,15.6341905 C12.4404762,15.6341905 14.6614286,16.5637143 16.3480952,18.0770476 C18.29,16.3332381 19.5204762,13.8113333 19.5204762,10.998 C19.5204762,5.7427619 15.2538095,1.47609524 9.99761905,1.47609524 C4.74238095,1.47609524 0.475714286,5.7427619 0.475714286,10.998 C0.475714286,13.8113333 1.7052381,16.3332381 3.64809524,18.0770476 Z" id="Stroke-9" stroke="#5C5D61"></path>
            <path d="M9.99809524,1.47638095 L9.99809524,4.32590476" id="Stroke-5" stroke="#5C5D61"></path>
            <path d="M16.7321905,4.26561905 L14.7169524,6.28085714" id="Stroke-7" stroke="#5C5D61"></path>
            <path d="M0.474285714,11.0001905 L3.32380952,11.0001905" id="Stroke-11" stroke="#5C5D61"></path>
            <path d="M19.522381,11.0001905 L16.6728571,11.0001905" id="Stroke-13" stroke="#5C5D61"></path>
            <path d="M3.264,4.26561905 L5.2792381,6.28085714" id="Stroke-15" stroke="#5C5D61"></path>
        </g>
    </g>
</svg>