<?xml version="1.0" encoding="UTF-8"?>
<svg width="20px" height="20px" viewBox="0 0 20 20" version="1.1" xmlns="http://www.w3.org/2000/svg" xmlns:xlink="http://www.w3.org/1999/xlink">
    <!-- Generator: Sketch 46.2 (44496) - http://www.bohemiancoding.com/sketch -->
    <title>@2xFleet active</title>
    <desc>Created with Sketch.</desc>
    <defs></defs>
    <g id="Page-1" stroke="none" stroke-width="1" fill="none" fill-rule="evenodd">
        <g id="Fleet-active">
            <path d="M19.258,13.5411429 L16.6741905,13.3478095 L13.9427619,9.89828571 C13.8665714,9.82304762 13.7913333,9.78495238 13.6770476,9.78495238 L6.08847619,9.78495238 C5.97514286,9.78495238 5.86085714,9.82304762 5.8227619,9.89828571 L3.09038095,12.971619 L0.779904762,14.1449524 C0.589428571,14.1820952 0.476095238,14.3344762 0.476095238,14.524 L1.40180952,17.1487619 C1.73133333,17.1487619 3.38752381,17.1182857 3.8532381,17.1106667 C3.87419048,16.1801905 4.62180952,15.4411429 5.55704762,15.4411429 C6.49228571,15.4411429 7.23895238,16.1792381 7.25990476,17.1078095 L13.4532381,17.1078095 C13.4760952,16.1792381 14.2227619,15.4411429 15.1560952,15.4411429 C16.0913333,15.4411429 16.838,16.1792381 16.8599048,17.1078095 L16.8637143,17.1078095 L19.1446667,17.1078095 C19.3722857,17.1078095 19.5237143,16.9554286 19.5237143,16.7287619 L19.5237143,13.8820952 C19.5237143,13.7306667 19.4094286,13.5792381 19.258,13.5411429" id="Fill-17" fill="#FFFFFF"></path>
            <path d="M7.19885714,17.0977143 L13.4493333,17.1072381 M16.863619,17.1081905 L19.1445714,17.1081905 C19.3721905,17.1081905 19.523619,16.9558095 19.523619,16.7281905 L19.523619,13.8824762 C19.523619,13.7310476 19.4093333,13.5786667 19.2579048,13.5415238 L16.6740952,13.3472381 L13.9426667,9.89866667 C13.8664762,9.82247619 13.7912381,9.78438095 13.6769524,9.78438095 L6.08838095,9.78438095 C5.97504762,9.78438095 5.8607619,9.82247619 5.82266667,9.89866667 L3.0912381,12.972 L0.779809524,14.144381 C0.590285714,14.1824762 0.476,14.3348571 0.476,14.524381 L1.40171429,17.1491429 C1.78552381,17.1491429 3.98266667,17.1081905 3.98266667,17.1081905" id="Stroke-1" stroke="#128EC2"></path>
            <path d="M8.42933333,7.58371429 C9.29695238,6.71609524 10.703619,6.71609524 11.5712381,7.58371429" id="Stroke-3" stroke="#FD7F10"></path>
            <path d="M5.27733333,4.43219048 C7.88590476,1.82457143 12.1144762,1.82457143 14.7220952,4.43219048" id="Stroke-5" stroke="#FD7F10"></path>
            <path d="M6.77933333,5.93419048 C8.55838095,4.15609524 11.4421905,4.15609524 13.2202857,5.93419048" id="Stroke-7" stroke="#FD7F10"></path>
            <path d="M3.0907619,12.972 L16.6745714,13.3481905" id="Stroke-9" stroke="#128EC2"></path>
            <path d="M9.88295238,9.68980952 L9.88295238,12.706" id="Stroke-11" stroke="#128EC2"></path>
            <path d="M5.5572381,18.856 C4.60866667,18.856 3.84961905,18.0969524 3.84961905,17.1493333 C3.84961905,16.1998095 4.60866667,15.4417143 5.5572381,15.4417143 C6.50580952,15.4417143 7.26485714,16.1998095 7.26485714,17.1493333 C7.26485714,18.0969524 6.54390476,18.856 5.5572381,18.856 Z" id="Stroke-13" stroke="#128EC2"></path>
            <path d="M15.156381,18.856 C14.2087619,18.856 13.4497143,18.0969524 13.4497143,17.1493333 C13.4497143,16.1998095 14.2087619,15.4417143 15.156381,15.4417143 C16.1049524,15.4417143 16.864,16.1998095 16.864,17.1493333 C16.864,18.0969524 16.1049524,18.856 15.156381,18.856 Z" id="Stroke-15" stroke="#128EC2"></path>
        </g>
    </g>
</svg>