<?xml version="1.0" encoding="UTF-8"?>
<svg width="20px" height="20px" viewBox="0 0 20 20" version="1.1" xmlns="http://www.w3.org/2000/svg" xmlns:xlink="http://www.w3.org/1999/xlink">
    <!-- Generator: Sketch 46.2 (44496) - http://www.bohemiancoding.com/sketch -->
    <title>@2xFleet</title>
    <desc>Created with Sketch.</desc>
    <defs></defs>
    <g id="Page-1" stroke="none" stroke-width="1" fill="none" fill-rule="evenodd">
        <g id="Fleet" stroke="#5C5D61">
            <path d="M7.19885714,17.0977143 L13.4493333,17.1072381 M16.863619,17.1081905 L19.1445714,17.1081905 C19.3721905,17.1081905 19.523619,16.9558095 19.523619,16.7281905 L19.523619,13.8824762 C19.523619,13.7310476 19.4093333,13.5786667 19.2579048,13.5415238 L16.6740952,13.3472381 L13.9426667,9.89866667 C13.8664762,9.82247619 13.7912381,9.78438095 13.6769524,9.78438095 L6.08838095,9.78438095 C5.97504762,9.78438095 5.8607619,9.82247619 5.82266667,9.89866667 L3.0912381,12.972 L0.779809524,14.144381 C0.590285714,14.1824762 0.476,14.3348571 0.476,14.524381 L1.40171429,17.1491429 C1.78552381,17.1491429 3.98266667,17.1081905 3.98266667,17.1081905" id="Stroke-1"></path>
            <path d="M8.42933333,7.58371429 C9.29695238,6.71609524 10.703619,6.71609524 11.5712381,7.58371429" id="Stroke-3"></path>
            <path d="M5.27733333,4.43219048 C7.88590476,1.82457143 12.1144762,1.82457143 14.7220952,4.43219048" id="Stroke-5"></path>
            <path d="M6.77933333,5.93419048 C8.55838095,4.15609524 11.4421905,4.15609524 13.2202857,5.93419048" id="Stroke-7"></path>
            <path d="M3.0907619,12.972 L16.6745714,13.3481905" id="Stroke-9"></path>
            <path d="M9.88295238,9.68980952 L9.88295238,12.706" id="Stroke-11"></path>
            <path d="M5.5572381,18.856 C4.60866667,18.856 3.84961905,18.0969524 3.84961905,17.1493333 C3.84961905,16.1998095 4.60866667,15.4417143 5.5572381,15.4417143 C6.50580952,15.4417143 7.26485714,16.1998095 7.26485714,17.1493333 C7.26485714,18.0969524 6.54390476,18.856 5.5572381,18.856 Z" id="Stroke-13"></path>
            <path d="M15.156381,18.856 C14.2087619,18.856 13.4497143,18.0969524 13.4497143,17.1493333 C13.4497143,16.1998095 14.2087619,15.4417143 15.156381,15.4417143 C16.1049524,15.4417143 16.864,16.1998095 16.864,17.1493333 C16.864,18.0969524 16.1049524,18.856 15.156381,18.856 Z" id="Stroke-15"></path>
        </g>
    </g>
</svg>