<?xml version="1.0" encoding="UTF-8"?>
<svg width="20px" height="20px" viewBox="0 0 20 20" version="1.1" xmlns="http://www.w3.org/2000/svg" xmlns:xlink="http://www.w3.org/1999/xlink">
    <!-- Generator: Sketch 46.2 (44496) - http://www.bohemiancoding.com/sketch -->
    <title>@2xPrice active</title>
    <desc>Created with Sketch.</desc>
    <defs></defs>
    <g id="Page-1" stroke="none" stroke-width="1" fill="none" fill-rule="evenodd">
        <g id="Price-active">
            <path d="M19.047619,9.52380952 C19.047619,14.7838095 14.7828571,19.047619 9.52380952,19.047619 C4.26380952,19.047619 0,14.7838095 0,9.52380952 C0,4.2647619 4.26380952,0 9.52380952,0 C14.7828571,0 19.047619,4.2647619 19.047619,9.52380952" id="Fill-3" fill="#FFFFFF"></path>
            <path d="M19.5,10 C19.5,4.75414237 15.2458576,0.5 10,0.5 C4.75349546,0.5 0.5,4.75378927 0.5,10 C0.5,15.2468576 4.75314237,19.5 10,19.5 C15.2462107,19.5 19.5,15.2465045 19.5,10 Z" id="Stroke-5" stroke="#128EC2"></path>
            <path d="M10,5 L10,6.48952381" id="Stroke-7" stroke="#FD7F10"></path>
            <path d="M10,13.4384472 L10,15.5" id="Stroke-9" stroke="#FD7F10"></path>
            <path d="M7,12.6714286 L7.57238095,11.94 C8.06285714,12.5114286 8.8847619,13.0371429 9.95809524,13.0371429 C11.3180952,13.0371429 11.7514286,12.3057143 11.7514286,11.7114286 C11.7514286,9.74761905 7.24,10.8438095 7.24,8.12571429 C7.24,6.86857143 8.36,6 9.86761905,6 C11.0209524,6 11.9238095,6.4 12.5628571,7.07428571 L11.9914286,7.77047619 C11.4209524,7.13142857 10.6219048,6.85714286 9.78761905,6.85714286 C8.8847619,6.85714286 8.22285714,7.34761905 8.22285714,8.06761905 C8.22285714,9.78095238 12.7342857,8.79904762 12.7342857,11.6428571 C12.7342857,12.7390476 11.98,13.8819048 9.92380952,13.8819048 C8.61047619,13.8819048 7.62857143,13.3790476 7,12.6714286" id="Fill-11" fill="#FD7F10"></path>
        </g>
    </g>
</svg>