<?xml version="1.0" encoding="UTF-8"?>
<svg width="20px" height="20px" viewBox="0 0 20 20" version="1.1" xmlns="http://www.w3.org/2000/svg" xmlns:xlink="http://www.w3.org/1999/xlink">
    <!-- Generator: Sketch 46.2 (44496) - http://www.bohemiancoding.com/sketch -->
    <title>@2xPrice</title>
    <desc>Created with Sketch.</desc>
    <defs></defs>
    <g id="Page-1" stroke="none" stroke-width="1" fill="none" fill-rule="evenodd">
        <g id="Price">
            <g>
                <path d="M19.5,10 C19.5,4.75414237 15.2458576,0.5 10,0.5 C4.75349546,0.5 0.5,4.75378927 0.5,10 C0.5,15.2468576 4.75314237,19.5 10,19.5 C15.2462107,19.5 19.5,15.2465045 19.5,10 Z" id="Stroke-5" stroke="#5C5D61"></path>
                <path d="M10.0001905,4.67714286 L10.0001905,6.16666667" id="Stroke-7" stroke="#5C5D61"></path>
                <path d="M10.0001905,13.833619 L10.0001905,15.3231429" id="Stroke-9" stroke="#5C5D61"></path>
                <path d="M7.13285714,12.726381 L7.7052381,11.9949524 C8.19571429,12.566381 9.01761905,13.0920952 10.0909524,13.0920952 C11.4509524,13.0920952 11.8842857,12.3606667 11.8842857,11.766381 C11.8842857,9.80257143 7.37285714,10.8987619 7.37285714,8.18066667 C7.37285714,6.92352381 8.49285714,6.05495238 10.0004762,6.05495238 C11.1538095,6.05495238 12.0566667,6.45495238 12.6957143,7.1292381 L12.1242857,7.82542857 C11.5538095,7.18638095 10.7547619,6.91209524 9.92047619,6.91209524 C9.01761905,6.91209524 8.35571429,7.40257143 8.35571429,8.12257143 C8.35571429,9.83590476 12.8671429,8.854 12.8671429,11.6978095 C12.8671429,12.794 12.1128571,13.9368571 10.0566667,13.9368571 C8.74333333,13.9368571 7.76142857,13.434 7.13285714,12.726381" id="Fill-11" fill="#5C5D61"></path>
            </g>
        </g>
    </g>
</svg>