<?xml version="1.0" encoding="UTF-8"?>
<svg width="536px" height="113px" viewBox="0 0 536 113" version="1.1" xmlns="http://www.w3.org/2000/svg" xmlns:xlink="http://www.w3.org/1999/xlink">
    <!-- Generator: Sketch 46.2 (44496) - http://www.bohemiancoding.com/sketch -->
    <title>@2xGroup 2</title>
    <desc>Created with Sketch.</desc>
    <defs>
        <path d="M36.0019217,0 C25.7015273,0 17,8.99668645 17,19.6540032 C17,23.3913848 18.6219278,26.7126454 19.8825731,28.9242506 C19.9210074,29.0167219 19.970972,29.1053402 20.0324669,29.1862526 L35.2601396,49.5222316 C35.486902,49.8189104 35.8366542,50 36.2133104,50 C36.5861232,50 36.9358754,49.8227634 37.1587944,49.5222316 L52.4018408,29.1862526 C52.4710226,29.1014872 52.5209872,29.00131 52.5594215,28.9049857 C54.1582887,26.0769053 55,22.8789397 55,19.6540032 C55,8.99668645 46.3023162,0 36.0019217,0 Z" id="path-1"></path>
        <path d="M66.0015572,38 C69.3371399,38 72,40.6597457 72,43.9984428 C72,47.3371399 69.3371399,50 66.0015572,50 C62.6628601,50 60,47.3371399 60,43.9984428 C60,40.6597457 62.6628601,38 66.0015572,38 Z" id="path-2"></path>
    </defs>
    <g id="Fleet" stroke="none" stroke-width="1" fill="none" fill-rule="evenodd">
        <g id="Price-Added" transform="translate(-451.000000, -472.000000)">
            <g id="Group" transform="translate(445.000000, 404.000000)">
                <g id="Group-2" transform="translate(6.000000, 69.000000)">
                    <path d="M0,97.203876 C37.5406983,117.333586 81.8692487,113.037457 132.985651,84.3154893 C209.660255,41.2325372 271.234416,41.2528572 364.805968,84.2283666 C458.37752,127.203876 520.32141,100.575461 538.114241,86.2144769" id="Path-2" stroke="#128EC2" stroke-dasharray="2,4"></path>
                    <g id="Multi-day-Tour" transform="translate(405.000000, 53.000000)">
                        <path d="M74.8285,53.018 C74.8285,55.789 58.0777718,58.036 37.4138576,58.036 C16.7507282,58.036 0,55.789 0,53.018 C0,50.247 16.7507282,48 37.4138576,48 C58.0777718,48 74.8285,50.247 74.8285,53.018" id="Fill-4" fill="#C0E0F9" opacity="0.5"></path>
                        <path d="M38,0 C23.648,0 12,11.648 12,26 C12,40.34875 23.648,52 38,52 C52.352,52 64,40.34875 64,26 C64,11.648 52.352,0 38,0 Z" id="Stroke-1" stroke="#128EC2" stroke-width="2" fill="#C0E0F9"></path>
                        <path d="M38,0 L38,6.03482353" id="Stroke-3" stroke="#128EC2" stroke-width="2"></path>
                        <path d="M56.7280471,7.54207059 L52.4621647,11.8079529" id="Stroke-5" stroke="#128EC2" stroke-width="2"></path>
                        <path d="M64.0348235,26 L58,26" id="Stroke-7" stroke="#128EC2" stroke-width="2"></path>
                        <path d="M38,52 L38,46" id="Stroke-9" stroke="#128EC2" stroke-width="2"></path>
                        <path d="M12,26 L18.0348235,26" id="Stroke-11" stroke="#128EC2" stroke-width="2"></path>
                        <path d="M19.4587294,7.18828235 L23.7246118,11.4574588" id="Stroke-13" stroke="#128EC2" stroke-width="2"></path>
                        <path d="M38.0016192,10 C31.4988531,10 26,15.7571708 26,22.5769508 C26,24.9719338 27.0265821,27.0938624 27.8199973,28.5084815 C27.8459047,28.570988 27.878289,28.6269148 27.9171502,28.6795518 L37.532047,41.6940475 C37.6745378,41.8815668 37.8979895,42 38.1343948,42 C38.3708002,42 38.5942518,41.8815668 38.7335043,41.6940475 L48.3613547,28.6795518 C48.4002159,28.623625 48.4358386,28.5644083 48.4585076,28.4986121 C49.4688976,26.6859258 50,24.6429526 50,22.5769508 C50,15.7571708 44.5076238,10 38.0016192,10 Z" id="Stroke-15" stroke="#128EC2" stroke-width="2" fill="#FFFFFF"></path>
                        <path d="M37.9985606,17 C35.7905721,17 34,18.7934509 34,21.0014394 C34,23.2065491 35.7905721,25 37.9985606,25 C40.2094279,25 42,23.2065491 42,21.0014394 C42,18.7934509 40.2094279,17 37.9985606,17" id="Fill-17" fill="#128EC2"></path>
                        <polygon id="Stroke-19" stroke="#128EC2" stroke-width="2" points="58.2818824 42.0209412 44.8715294 42.0209412 17.112 42.0209412 44.8715294 42.0209412"></polygon>
                    </g>
                    <g id="Transfer" transform="translate(58.000000, 51.000000)">
                        <path d="M75.08575,52.018 C75.08575,54.789 58.3350218,57.036 37.6711076,57.036 C17.0079782,57.036 0.25725,54.789 0.25725,52.018 C0.25725,49.247 17.0079782,47 37.6711076,47 C58.3350218,47 75.08575,49.247 75.08575,52.018" id="Fill-4" fill="#C0E0F9" opacity="0.5"></path>
                        <g id="Stroke-1">
                            <use fill="#C0E0F9" fill-rule="evenodd" xlink:href="#path-1"></use>
                            <path stroke="#128EC2" stroke-width="2" d="M53.4598547,29.3440176 C53.3861296,29.5153309 53.2990664,29.6682997 53.2020096,29.7860275 L37.9619642,50.1179818 C37.550618,50.6725446 36.903093,51 36.2133104,51 C35.5258612,51 34.8822294,50.6745303 34.4596805,50.121619 L19.2363117,29.7913451 C19.13774,29.6616487 19.0545102,29.5211198 18.9873929,29.3730619 C17.0824211,26.0206714 16,22.9796947 16,19.6540032 C16,8.45296737 25.1404361,-1 36.0019217,-1 C46.8627568,-1 56,8.45228795 56,19.6540032 C56,23.0341488 55.1227473,26.3814571 53.4598547,29.3440176 Z"></path>
                        </g>
                        <path d="M35.9977994,11 C32.1336058,11 29,14.1370207 29,18.0043997 C29,21.8629793 32.1336058,25 35.9977994,25 C39.8663942,25 43,21.8629793 43,18.0043997 C43,14.1370207 39.8663942,11 35.9977994,11 Z" id="Stroke-3" stroke="#128EC2" stroke-width="2" fill="#FFFFFF"></path>
                        <g id="Stroke-5">
                            <use fill="#FFFFFF" fill-rule="evenodd" xlink:href="#path-2"></use>
                            <path stroke="#128EC2" stroke-width="2" d="M66.0015572,37 C69.890423,37 73,40.1084588 73,43.9984428 C73,47.8888654 69.8899837,51 66.0015572,51 C62.1105754,51 59,47.8894246 59,43.9984428 C59,40.1078999 62.1101358,37 66.0015572,37 Z"></path>
                        </g>
                        <path d="M67,51 L36,51" id="Stroke-7" stroke="#128EC2" stroke-width="2" fill="#EEF8FF"></path>
                    </g>
                    <g id="DayTrip" transform="translate(232.000000, 0.000000)">
                        <path d="M75,53 C75,55.7610602 58.2108807,58 37.4996067,58 C16.7891193,58 0,55.7610602 0,53 C0,50.2389398 16.7891193,48 37.4996067,48 C58.2108807,48 75,50.2389398 75,53" id="Fill-4" fill="#C0E0F9" opacity="0.5"></path>
                        <circle id="Oval-2" fill="#C0E0F9" cx="40" cy="26" r="25"></circle>
                        <path d="M40.2336286,50.9643929 C42.9895775,50.95025 45.7926056,50.5012143 48.5413115,49.5713214 C61.9552859,45.0314643 69.0570148,30.7401071 64.4070302,17.6473571 C59.760667,4.55460714 45.1190097,-2.37892857 31.7086568,2.15739286 C18.2983038,6.69371429 11.1929535,20.9886071 15.8429381,34.0848929" id="Stroke-1" stroke="#128EC2" stroke-width="2"></path>
                        <polyline id="Stroke-3" stroke="#128EC2" stroke-width="2" transform="translate(14.178251, 30.857464) rotate(-6.000000) translate(-14.178251, -30.857464) " points="8 30.3695357 15.9056982 34.7149286 20.3565013 27"></polyline>
                        <path d="M27.1517442,34.5873179 C23.4071304,34.5873179 20.241954,37.7729964 20.241954,41.5456036 C20.241954,42.8714964 20.8322558,44.0453536 21.2921841,44.8267464 C21.3066701,44.8585679 21.3247775,44.8903893 21.3465064,44.9222107 L26.8837545,52.120925 C26.9634271,52.2234607 27.090179,52.2906393 27.2277954,52.2906393 C27.3654118,52.2906393 27.4921637,52.2269964 27.5718363,52.120925 L33.1127059,44.9222107 C33.1380563,44.8903893 33.1561637,44.8550321 33.1706496,44.8232107 C33.7537084,43.8190679 34.057913,42.6876393 34.057913,41.5456036 C34.057913,37.7729964 30.8963581,34.5873179 27.1517442,34.5873179 Z" id="Stroke-5" stroke="#128EC2" stroke-width="2" fill="#FFFFFF"></path>
                        <path d="M27.1517442,38.3786643 C25.7212583,38.3786643 24.5623836,39.5136286 24.5623836,40.9102357 C24.5623836,42.3033071 25.7212583,43.4382714 27.1517442,43.4382714 C28.5822302,43.4382714 29.7411049,42.3033071 29.7411049,40.9102357 C29.7411049,39.5136286 28.5822302,38.3786643 27.1517442,38.3786643" id="Fill-7" fill="#128EC2"></path>
                        <path d="M40.1238977,20.9521893 C37.3462199,20.9521893 35.0936573,23.1549393 35.0936573,25.8668321 C35.0936573,28.5751893 37.3462199,30.7779393 40.1238977,30.7779393 C42.9051969,30.7779393 45.1577596,28.5751893 45.1577596,25.8668321 C45.1577596,23.1549393 42.9051969,20.9521893 40.1238977,20.9521893 Z" id="Stroke-9" stroke="#128EC2" stroke-width="2" fill="#FFFFFF"></path>
                        <path d="M40,20.9521893 L40,9.89954643" id="Stroke-11" stroke="#128EC2" stroke-width="2"></path>
                        <path d="M46,26 L57.5126957,26" id="Stroke-13" stroke="#128EC2" stroke-width="2"></path>
                    </g>
                </g>
            </g>
        </g>
    </g>
</svg>