<?xml version="1.0" encoding="UTF-8"?>
<svg width="86px" height="86px" viewBox="0 0 86 86" version="1.1" xmlns="http://www.w3.org/2000/svg" xmlns:xlink="http://www.w3.org/1999/xlink">
    <!-- Generator: Sketch 46.2 (44496) - http://www.bohemiancoding.com/sketch -->
    <title>@2xDayTrip</title>
    <desc>Created with Sketch.</desc>
    <defs></defs>
    <g id="Page-1" stroke="none" stroke-width="1" fill="none" fill-rule="evenodd">
        <g id="DayTrip">
            <path d="M81,67 C81,69.7610602 64.2108807,72 43.4996067,72 C22.7891193,72 6,69.7610602 6,67 C6,64.2389398 22.7891193,62 43.4996067,62 C64.2108807,62 81,64.2389398 81,67" id="Fill-4" fill="#C0E0F9" opacity="0.5"></path>
            <circle id="Oval-2" fill="#C0E0F9" cx="46" cy="40" r="25"></circle>
            <path d="M46.2336286,64.9643929 C48.9895775,64.95025 51.7926056,64.5012143 54.5413115,63.5713214 C67.9552859,59.0314643 75.0570148,44.7401071 70.4070302,31.6473571 C65.760667,18.5546071 51.1190097,11.6210714 37.7086568,16.1573929 C24.2983038,20.6937143 17.1929535,34.9886071 21.8429381,48.0848929" id="Stroke-1" stroke="#128EC2" stroke-width="2"></path>
            <polyline id="Stroke-3" stroke="#128EC2" stroke-width="2" transform="translate(20.178251, 44.857464) rotate(-6.000000) translate(-20.178251, -44.857464) " points="14 44.3695357 21.9056982 48.7149286 26.3565013 41"></polyline>
            <path d="M33.1517442,48.5873179 C29.4071304,48.5873179 26.241954,51.7729964 26.241954,55.5456036 C26.241954,56.8714964 26.8322558,58.0453536 27.2921841,58.8267464 C27.3066701,58.8585679 27.3247775,58.8903893 27.3465064,58.9222107 L32.8837545,66.120925 C32.9634271,66.2234607 33.090179,66.2906393 33.2277954,66.2906393 C33.3654118,66.2906393 33.4921637,66.2269964 33.5718363,66.120925 L39.1127059,58.9222107 C39.1380563,58.8903893 39.1561637,58.8550321 39.1706496,58.8232107 C39.7537084,57.8190679 40.057913,56.6876393 40.057913,55.5456036 C40.057913,51.7729964 36.8963581,48.5873179 33.1517442,48.5873179 Z" id="Stroke-5" stroke="#128EC2" stroke-width="2" fill="#FFFFFF"></path>
            <path d="M33.1517442,52.3786643 C31.7212583,52.3786643 30.5623836,53.5136286 30.5623836,54.9102357 C30.5623836,56.3033071 31.7212583,57.4382714 33.1517442,57.4382714 C34.5822302,57.4382714 35.7411049,56.3033071 35.7411049,54.9102357 C35.7411049,53.5136286 34.5822302,52.3786643 33.1517442,52.3786643" id="Fill-7" fill="#128EC2"></path>
            <path d="M46.1238977,34.9521893 C43.3462199,34.9521893 41.0936573,37.1549393 41.0936573,39.8668321 C41.0936573,42.5751893 43.3462199,44.7779393 46.1238977,44.7779393 C48.9051969,44.7779393 51.1577596,42.5751893 51.1577596,39.8668321 C51.1577596,37.1549393 48.9051969,34.9521893 46.1238977,34.9521893 Z" id="Stroke-9" stroke="#128EC2" stroke-width="2" fill="#FFFFFF"></path>
            <path d="M46,34.9521893 L46,23.8995464" id="Stroke-11" stroke="#128EC2" stroke-width="2"></path>
            <path d="M52,40 L63.5126957,40" id="Stroke-13" stroke="#128EC2" stroke-width="2"></path>
        </g>
    </g>
</svg>