<?xml version="1.0" encoding="UTF-8"?>
<svg width="120px" height="120px" viewBox="0 0 120 120" version="1.1" xmlns="http://www.w3.org/2000/svg" xmlns:xlink="http://www.w3.org/1999/xlink">
    <!-- Generator: Sketch 46.2 (44496) - http://www.bohemiancoding.com/sketch -->
    <title>@2xDepot_image</title>
    <desc>Created with Sketch.</desc>
    <defs></defs>
    <g id="Fleet" stroke="none" stroke-width="1" fill="none" fill-rule="evenodd">
        <g id="Fleet_empty-state_visual" transform="translate(-661.000000, -604.000000)">
            <g id="Depot_image" transform="translate(661.000000, 604.000000)">
                <circle id="Oval-3" fill="#E7F3F9" cx="60" cy="60" r="60"></circle>
                <ellipse id="Oval-3" fill="#DAEAF2" cx="60.5" cy="98.5" rx="27.5" ry="4.5"></ellipse>
                <rect id="Rectangle-5" stroke="#C7E4F1" stroke-width="2" fill="#FFFFFF" stroke-linecap="round" stroke-linejoin="round" x="20" y="20" width="80" height="80" rx="40"></rect>
                <g id="Page-1" transform="translate(36.000000, 31.000000)" stroke="#C7E4F1" stroke-width="2">
                    <path d="M13.3948457,27 L35.715858,27" id="Stroke-1"></path>
                    <path d="M13.3948457,37 L35.715858,37" id="Stroke-2"></path>
                    <path d="M13.3948457,34 L35.715858,34" id="Stroke-3"></path>
                    <path d="M20.3720222,45.8777108 L20.3720222,48.1018072 C20.3720222,48.7674699 19.8299975,49.3066265 19.1621457,49.3066265 L17.6292321,49.3066265 C16.9613802,49.3066265 16.4193556,48.7674699 16.4193556,48.1018072 L16.4193556,45.8777108" id="Stroke-4"></path>
                    <path d="M32.6911667,45.8777108 L32.6911667,48.1018072 C32.6911667,48.7674699 32.149142,49.3066265 31.4812901,49.3066265 L29.9483765,49.3066265 C29.2805247,49.3066265 28.7385,48.7674699 28.7385,48.1018072 L28.7385,45.8777108" id="Stroke-6"></path>
                    <path d="M30.6902123,42.6950602 C29.8547926,42.6950602 29.2153728,42.0095181 29.2153728,41.2263855 C29.2153728,40.443253 29.9037926,39.7577108 30.6902123,39.7577108 C31.526237,39.7577108 32.2146568,40.443253 32.2146568,41.2263855 C32.2146568,42.0095181 31.477237,42.6950602 30.6902123,42.6950602 Z" id="Stroke-8"></path>
                    <path d="M18.3956284,42.6950602 C17.5602086,42.6950602 16.9207889,42.0095181 16.9207889,41.2263855 C16.9207889,40.443253 17.6092086,39.7577108 18.3956284,39.7577108 C19.1820481,39.7577108 19.8704679,40.443253 19.8704679,41.2263855 C19.8704679,42.0095181 19.2316531,42.6950602 18.3956284,42.6950602 Z" id="Stroke-10"></path>
                    <path d="M20.9170111,24 L28.1442086,24" id="Stroke-12"></path>
                    <path d="M34.5059815,45.8777108 L14.6047222,45.8777108 C13.9392901,45.8777108 13.3948457,45.3355422 13.3948457,44.6728916 L13.3948457,23.5138554 C13.3948457,22.1885542 14.4837346,21.1042169 15.8145988,21.1042169 L33.2961049,21.1042169 C34.6269691,21.1042169 35.715858,22.1885542 35.715858,23.5138554 L35.715858,44.6728916 C35.715858,45.3355422 35.1714136,45.8777108 34.5059815,45.8777108 Z" id="Stroke-14"></path>
                    <polyline id="Stroke-16" points="36.5987049 49.5004217 48.6974704 49.5004217 48.6974704 24.5221084 24.4999395 0.425722892 0.302408642 24.5221084 0.302408642 49.5004217 12.4011741 49.5004217"></polyline>
                </g>
            </g>
        </g>
    </g>
</svg>