<?xml version="1.0" encoding="UTF-8"?>
<svg width="123px" height="128px" viewBox="0 0 123 128" version="1.1" xmlns="http://www.w3.org/2000/svg" xmlns:xlink="http://www.w3.org/1999/xlink">
    <!-- Generator: Sketch 46.2 (44496) - http://www.bohemiancoding.com/sketch -->
    <title>@2xExterior of vehicle as Main Picture</title>
    <desc>Created with Sketch.</desc>
    <defs>
        <polygon id="path-1" points="0.4235 20.2260425 10.609 26.16 10.609 0.6375 0.4235 0.6375 0.4235 20.2260425"></polygon>
        <polygon id="path-3" points="0.8905 1.99364381 3.7775 3.67557747 3.7775 0.2167 0.8905 0.2167 0.8905 1.99364381"></polygon>
        <polygon id="path-5" points="16.3375 29.5828782 0.5295 20.3728783 0.5295 0.3973 16.3375 0.3973 16.3375 29.5828782"></polygon>
        <polygon id="path-7" points="0.3379 9.58311129 4.294 11.888 4.294 0.07 0.3379 0.07 0.3379 9.58311129"></polygon>
        <polygon id="path-9" points="0.2623 1.70429827 2.0753 2.76058179 2.0753 0.188 0.2623 0.188 0.2623 1.70429827"></polygon>
    </defs>
    <g id="Fleet" stroke="none" stroke-width="1" fill="none" fill-rule="evenodd">
        <g id="Add-Vehicle-Step-3_visual" transform="translate(-1003.000000, -345.000000)">
            <g id="Exterior-of-vehicle-as-Main-Picture" transform="translate(1003.000000, 345.000000)">
                <g id="Group-5" transform="translate(0.000000, 7.296000)">
                    <path d="M120.0001,59.9998 C120.0001,93.1368 93.1371,119.9998 60.0001,119.9998 C26.8631,119.9998 0.0001,93.1368 0.0001,59.9998 C0.0001,26.8628 26.8631,-0.0002 60.0001,-0.0002 C93.1371,-0.0002 120.0001,26.8628 120.0001,59.9998" id="Fill-1" fill="#E7F3F9"></path>
                    <path d="M60.0001,96.9998 C87.0621,96.9998 109.0001,92.7468 109.0001,87.4998 C109.0001,82.2528 87.0621,77.9998 60.0001,77.9998 C32.9381,77.9998 11.0001,82.2528 11.0001,87.4998 C11.0001,92.7468 32.9381,96.9998 60.0001,96.9998" id="Fill-3" fill="#DAEAF2"></path>
                </g>
                <g id="Group-32" transform="translate(66.000000, 26.296000)">
                    <g id="Group-8">
                        <mask id="mask-2" fill="white">
                            <use xlink:href="#path-1"></use>
                        </mask>
                        <g id="Clip-7"></g>
                        <polygon id="Fill-6" fill="#FFFFFF" mask="url(#mask-2)" points="0.4235 29.0105 0.4235 0.6375 11.8495 7.2475 11.8495 36.3645"></polygon>
                    </g>
                    <polygon id="Fill-9" fill="#C7E4F1" points="5.4254 8.971 2.5384 7.301 2.5384 4.414 5.4254 6.084"></polygon>
                    <polygon id="Fill-11" fill="#C7E4F1" points="9.7775 11.4885 6.8905 9.8185 6.8905 6.9315 9.7775 8.6015"></polygon>
                    <polygon id="Fill-13" fill="#C7E4F1" points="5.4254 14.0657 2.5384 12.3957 2.5384 9.5087 5.4254 11.1787"></polygon>
                    <polygon id="Fill-15" fill="#C7E4F1" points="9.7775 16.5833 6.8905 14.9133 6.8905 12.0263 9.7775 13.6963"></polygon>
                    <polygon id="Fill-17" fill="#C7E4F1" points="5.4254 19.1609 2.5384 17.4909 2.5384 14.6039 5.4254 16.2739"></polygon>
                    <polygon id="Fill-19" fill="#C7E4F1" points="9.7775 21.6785 6.8905 20.0085 6.8905 17.1215 9.7775 18.7915"></polygon>
                    <polygon id="Fill-21" fill="#C7E4F1" points="5.4254 24.2561 2.5384 22.5861 2.5384 19.6991 5.4254 21.3691"></polygon>
                    <g id="Group-25" transform="translate(6.000000, 22.000000)">
                        <mask id="mask-4" fill="white">
                            <use xlink:href="#path-3"></use>
                        </mask>
                        <g id="Clip-24"></g>
                        <polygon id="Fill-23" fill="#C7E4F1" mask="url(#mask-4)" points="3.7775 4.7737 0.8905 3.1037 0.8905 0.2167 3.7775 1.8867"></polygon>
                    </g>
                    <g id="Group-28" transform="translate(2.000000, 24.000000)" fill="#C7E4F1">
                        <polygon id="Fill-26" points="3.4254 5.3513 0.5384 3.6813 0.5384 0.7943 3.4254 2.4643"></polygon>
                    </g>
                    <g id="Group-31" transform="translate(6.000000, 27.000000)" fill="#C7E4F1">
                        <polygon id="Fill-29" points="3.7775 4.8689 0.8905 3.1989 0.8905 0.3119 3.7775 1.9819"></polygon>
                    </g>
                </g>
                <g id="Group-105" transform="translate(92.000000, 46.296000)">
                    <g id="Group-35" transform="translate(9.000000, 0.000000)">
                        <mask id="mask-6" fill="white">
                            <use xlink:href="#path-5"></use>
                        </mask>
                        <g id="Clip-34"></g>
                        <polyline id="Fill-33" fill="#FFFFFF" mask="url(#mask-6)" points="16.3375 37.8943 16.3375 9.5423 0.5295 0.3973 0.5295 28.7483"></polyline>
                    </g>
                    <polygon id="Fill-36" fill="#C7E4F1" points="14.5275 8.7244 11.6425 7.0564 11.6425 4.1714 14.5275 5.8404"></polygon>
                    <polygon id="Fill-38" fill="#C7E4F1" points="18.8756 11.2405 15.9916 9.5715 15.9916 6.6865 18.8756 8.3555"></polygon>
                    <polygon id="Fill-40" fill="#C7E4F1" points="23.2242 13.7561 20.3392 12.0871 20.3392 9.2021 23.2242 10.8711"></polygon>
                    <polygon id="Fill-42" fill="#C7E4F1" points="14.5275 13.8157 11.6425 12.1477 11.6425 9.2627 14.5275 10.9307"></polygon>
                    <polygon id="Fill-44" fill="#C7E4F1" points="18.8756 16.3313 15.9916 14.6633 15.9916 11.7783 18.8756 13.4473"></polygon>
                    <polygon id="Fill-46" fill="#C7E4F1" points="23.2242 18.8469 20.3392 17.1789 20.3392 14.2939 23.2242 15.9629"></polygon>
                    <polygon id="Fill-48" fill="#C7E4F1" points="14.5275 18.907 11.6425 17.238 11.6425 14.354 14.5275 16.022"></polygon>
                    <polygon id="Fill-50" fill="#C7E4F1" points="18.8756 21.4226 15.9916 19.7536 15.9916 16.8696 18.8756 18.5376"></polygon>
                    <polygon id="Fill-52" fill="#C7E4F1" points="23.2242 23.9382 20.3392 22.2692 20.3392 19.3852 23.2242 21.0532"></polygon>
                    <polygon id="Fill-54" fill="#C7E4F1" points="14.5275 23.9983 11.6425 22.3293 11.6425 19.4443 14.5275 21.1133"></polygon>
                    <polygon id="Fill-56" fill="#C7E4F1" points="18.8756 26.5139 15.9916 24.8449 15.9916 21.9599 18.8756 23.6289"></polygon>
                    <polygon id="Fill-58" fill="#C7E4F1" points="23.2242 29.0296 20.3392 27.3606 20.3392 24.4756 23.2242 26.1446"></polygon>
                    <g id="Group-66" transform="translate(20.000000, 29.000000)" fill="#C7E4F1">
                        <polygon id="Fill-64" points="3.2242 5.1204 0.3392 3.4524 0.3392 0.5674 3.2242 2.2364"></polygon>
                    </g>
                    <g id="Group-69" transform="translate(25.000000, 20.000000)">
                        <mask id="mask-8" fill="white">
                            <use xlink:href="#path-7"></use>
                        </mask>
                        <g id="Clip-68"></g>
                        <polygon id="Fill-67" fill="#FFFFFF" mask="url(#mask-8)" points="5.4039 20.825 5.4039 3.001 0.3379 0.07 0.3379 17.613"></polygon>
                    </g>
                    <polygon id="Fill-70" fill="#C7E4F1" points="29.0753 25.6492 27.2623 24.6002 27.2623 22.7872 29.0753 23.8362"></polygon>
                    <polygon id="Fill-72" fill="#C7E4F1" points="29.0753 28.8504 27.2623 27.8014 27.2623 25.9874 29.0753 27.0374"></polygon>
                    <g id="Group-76" transform="translate(27.000000, 29.000000)">
                        <mask id="mask-10" fill="white">
                            <use xlink:href="#path-9"></use>
                        </mask>
                        <g id="Clip-75"></g>
                        <polygon id="Fill-74" fill="#C7E4F1" mask="url(#mask-10)" points="2.0753 3.051 0.2623 2.002 0.2623 0.188 2.0753 1.238"></polygon>
                    </g>
                    <g id="Group-79" transform="translate(27.000000, 32.000000)" fill="#C7E4F1">
                        <polygon id="Fill-77" points="2.0753 3.2517 0.2623 2.2027 0.2623 0.3887 2.0753 1.4387"></polygon>
                    </g>
                    <g id="Group-82" transform="translate(27.000000, 35.000000)" fill="#C7E4F1">
                        <polygon id="Fill-80" points="2.0753 3.4529 0.2623 2.4039 0.2623 0.5899 2.0753 1.6389"></polygon>
                    </g>
                    <polygon id="Fill-83" fill="#FFFFFF" points="0.5768 23.5696 0.5768 1.3376 9.5298 6.5166 9.5298 28.8506"></polygon>
                    <polygon id="Fill-85" fill="#C7E4F1" points="4.4957 7.8674 2.2337 6.5584 2.2337 4.2964 4.4957 5.6054"></polygon>
                    <polygon id="Fill-87" fill="#C7E4F1" points="7.9059 9.8401 5.6439 8.5311 5.6439 6.2691 7.9059 7.5781"></polygon>
                    <polygon id="Fill-89" fill="#C7E4F1" points="4.4957 11.8596 2.2337 10.5506 2.2337 8.2896 4.4957 9.5976"></polygon>
                    <polygon id="Fill-91" fill="#C7E4F1" points="7.9059 13.8323 5.6439 12.5233 5.6439 10.2623 7.9059 11.5703"></polygon>
                    <polygon id="Fill-93" fill="#C7E4F1" points="4.4957 15.8518 2.2337 14.5428 2.2337 12.2818 4.4957 13.5898"></polygon>
                    <polygon id="Fill-95" fill="#C7E4F1" points="7.9059 17.8245 5.6439 16.5155 5.6439 14.2545 7.9059 15.5625"></polygon>
                    <polygon id="Fill-97" fill="#C7E4F1" points="4.4957 19.8445 2.2337 18.5355 2.2337 16.2735 4.4957 17.5825"></polygon>
                    <polygon id="Fill-99" fill="#C7E4F1" points="7.9059 21.8172 5.6439 20.5082 5.6439 18.2462 7.9059 19.5552"></polygon>
                </g>
                <g id="Group-198" transform="translate(4.000000, 0.296000)">
                    <polygon id="Stroke-106" stroke="#C7E4F1" stroke-width="2" stroke-linecap="round" stroke-linejoin="round" points="72.6085 52.1594 36.4595 31.0994 36.4595 0.7034 72.6085 21.7634"></polygon>
                    <polygon id="Stroke-108" stroke="#C7E4F1" stroke-width="2" stroke-linecap="round" stroke-linejoin="round" points="117.2941 77.8875 81.1451 56.8275 81.1451 26.4315 117.2941 47.4915"></polygon>
                    <polygon id="Fill-110" fill="#E6F5FF" points="60.3185 56.4505 60.3185 59.5575 41.7825 70.1495 22.1075 59.9815 22.1075 31.5175 41.3225 21.0475 43.7385 22.7735 43.7385 47.9715"></polygon>
                    <polygon id="Stroke-112" stroke="#C7E4F1" stroke-width="2" stroke-linecap="round" stroke-linejoin="round" points="43.7389 47.9715 24.5239 58.4425 24.5239 33.2435 43.7389 22.7735"></polygon>
                    <polygon id="Fill-114" fill="#DCF3FF" points="43.7389 47.9715 24.5239 58.4425 41.7829 67.0425 60.3189 56.4505"></polygon>
                    <polygon id="Stroke-116" stroke="#C7E4F1" stroke-width="2" stroke-linecap="round" stroke-linejoin="round" points="43.7389 47.9715 24.5239 58.4425 41.7829 67.0425 60.3189 56.4505"></polygon>
                    <polyline id="Stroke-118" stroke="#C7E4F1" stroke-width="2" stroke-linecap="round" stroke-linejoin="round" points="60.3185 56.4505 60.3185 59.5575 41.7825 70.1495 22.1075 59.9815 22.1075 31.5175 41.3225 21.0475 43.7385 22.7735"></polyline>
                    <path d="M26.1315,31.7669 C25.8225,31.5019 25.6405,31.0699 25.6405,30.4979 C25.6405,29.0369 26.8245,27.2109 28.2845,26.4189 L37.2545,21.5569 C38.2335,21.0259 39.2545,21.2569 39.7115,21.7989" id="Fill-120" fill="#E6F5FF"></path>
                    <path d="M38.6778,28.2698 L29.7088,33.1318 C28.2478,33.9238 27.0638,33.3818 27.0638,31.9208 C27.0638,30.4608 28.2478,28.6348 29.7088,27.8428 L38.6778,22.9798 C40.1388,22.1878 41.3228,22.7308 41.3228,24.1908 C41.3228,25.6518 40.1388,27.4778 38.6778,28.2698" id="Fill-122" fill="#FFFFFF"></path>
                    <path d="M38.6778,28.2698 L29.7088,33.1318 C28.2478,33.9238 27.0638,33.3818 27.0638,31.9208 C27.0638,30.4608 28.2478,28.6348 29.7088,27.8428 L38.6778,22.9798 C40.1388,22.1878 41.3228,22.7308 41.3228,24.1908 C41.3228,25.6518 40.1388,27.4778 38.6778,28.2698 Z" id="Stroke-124" stroke="#C7E4F1" stroke-width="2" stroke-linecap="round" stroke-linejoin="round"></path>
                    <path d="M26.1315,31.7669 C25.8225,31.5019 25.6405,31.0699 25.6405,30.4979 C25.6405,29.0369 26.8245,27.2109 28.2845,26.4189 L37.2545,21.5569 C38.2335,21.0259 39.0875,21.0949 39.5445,21.6369" id="Stroke-126" stroke="#C7E4F1" stroke-width="2" stroke-linecap="round" stroke-linejoin="round"></path>
                    <path d="M26.0436,31.6839 L27.5136,33.1529" id="Fill-128" fill="#9AD1EF"></path>
                    <polyline id="Fill-130" fill="#9AD1EF" points="39.4806 21.5672 39.5066 21.5932 40.8376 22.9272"></polyline>
                    <polygon id="Fill-132" fill="#E6F5FF" points="38.9171 68.8772 38.9171 71.9832 20.3811 82.5762 0.7061 72.4082 0.7061 43.9442 19.9211 33.4742 22.3371 35.1992 22.3371 60.3982"></polygon>
                    <polygon id="Stroke-134" stroke="#C7E4F1" stroke-width="2" stroke-linecap="round" stroke-linejoin="round" points="22.3375 60.3982 3.1225 70.8692 3.1225 45.6702 22.3375 35.1992"></polygon>
                    <polygon id="Fill-136" fill="#DCF3FF" points="22.3375 60.3982 3.1225 70.8692 20.3815 79.4692 38.9175 68.8772"></polygon>
                    <polygon id="Stroke-138" stroke="#C7E4F1" stroke-width="2" stroke-linecap="round" stroke-linejoin="round" points="22.3375 60.3982 3.1225 70.8692 20.3815 79.4692 38.9175 68.8772"></polygon>
                    <polyline id="Stroke-140" stroke="#C7E4F1" stroke-width="2" stroke-linecap="round" stroke-linejoin="round" points="38.9171 68.8772 38.9171 71.9832 20.3811 82.5762 0.7061 72.4082 0.7061 43.9442 19.9211 33.4742 22.3371 35.1992"></polyline>
                    <path d="M4.7301,44.1936 C4.4201,43.9286 4.2391,43.4966 4.2391,42.9236 C4.2391,41.4636 5.4231,39.6376 6.8831,38.8456 L15.8531,33.9836 C16.8311,33.4526 17.8531,33.6836 18.3101,34.2256" id="Fill-142" fill="#E6F5FF"></path>
                    <path d="M17.2765,40.6965 L8.3075,45.5585 C6.8465,46.3505 5.6625,45.8085 5.6625,44.3475 C5.6625,42.8865 6.8465,41.0615 8.3075,40.2695 L17.2765,35.4065 C18.7365,34.6145 19.9215,35.1565 19.9215,36.6175 C19.9215,38.0785 18.7365,39.9045 17.2765,40.6965" id="Fill-144" fill="#FFFFFF"></path>
                    <path d="M17.2765,40.6965 L8.3075,45.5585 C6.8465,46.3505 5.6625,45.8085 5.6625,44.3475 C5.6625,42.8865 6.8465,41.0615 8.3075,40.2695 L17.2765,35.4065 C18.7365,34.6145 19.9215,35.1565 19.9215,36.6175 C19.9215,38.0785 18.7365,39.9045 17.2765,40.6965 Z" id="Stroke-146" stroke="#C7E4F1" stroke-width="2" stroke-linecap="round" stroke-linejoin="round"></path>
                    <path d="M4.7301,44.1936 C4.4201,43.9286 4.2391,43.4966 4.2391,42.9236 C4.2391,41.4636 5.4231,39.6376 6.8831,38.8456 L15.8531,33.9836 C16.8311,33.4526 17.6861,33.5206 18.1431,34.0626" id="Stroke-148" stroke="#C7E4F1" stroke-width="2" stroke-linecap="round" stroke-linejoin="round"></path>
                    <path d="M4.6422,44.1101 L6.1122,45.5791" id="Stroke-150" stroke="#C7E4F1" stroke-width="2" stroke-linecap="round" stroke-linejoin="round"></path>
                    <polyline id="Fill-152" fill="#E6F5FF" points="18.0792 33.9939 18.1052 34.0199 19.4362 35.3539"></polyline>
                    <polygon id="Fill-154" fill="#E6F5FF" points="93.4562 81.304 93.4562 84.41 74.9202 95.003 55.2452 84.835 55.2452 56.371 74.4602 45.9 76.8762 47.626 76.8762 72.825"></polygon>
                    <polygon id="Stroke-156" stroke="#C7E4F1" stroke-width="2" stroke-linecap="round" stroke-linejoin="round" points="76.8766 72.825 57.6616 83.295 57.6616 58.097 76.8766 47.626"></polygon>
                    <polygon id="Fill-158" fill="#DCF3FF" points="76.8766 72.825 57.6616 83.295 74.9206 91.896 93.4566 81.304"></polygon>
                    <polygon id="Stroke-160" stroke="#C7E4F1" stroke-width="2" stroke-linecap="round" stroke-linejoin="round" points="76.8766 72.825 57.6616 83.295 74.9206 91.896 93.4566 81.304"></polygon>
                    <polyline id="Stroke-162" stroke="#C7E4F1" stroke-width="2" stroke-linecap="round" stroke-linejoin="round" points="93.4562 81.304 93.4562 84.41 74.9202 95.003 55.2452 84.835 55.2452 56.371 74.4602 45.9 76.8762 47.626"></polyline>
                    <path d="M59.2691,56.6204 C58.9601,56.3554 58.7781,55.9234 58.7781,55.3504 C58.7781,53.8904 59.9621,52.0644 61.4221,51.2724 L70.3921,46.4104 C71.3711,45.8794 72.3921,46.1104 72.8491,46.6524" id="Fill-164" fill="#E6F5FF"></path>
                    <path d="M71.8156,53.1233 L62.8466,57.9853 C61.3856,58.7773 60.2016,58.2353 60.2016,56.7743 C60.2016,55.3133 61.3856,53.4873 62.8466,52.6963 L71.8156,47.8333 C73.2766,47.0413 74.4606,47.5833 74.4606,49.0443 C74.4606,50.5053 73.2766,52.3313 71.8156,53.1233" id="Fill-166" fill="#FFFFFF"></path>
                    <path d="M71.8156,53.1233 L62.8466,57.9853 C61.3856,58.7773 60.2016,58.2353 60.2016,56.7743 C60.2016,55.3133 61.3856,53.4873 62.8466,52.6963 L71.8156,47.8333 C73.2766,47.0413 74.4606,47.5833 74.4606,49.0443 C74.4606,50.5053 73.2766,52.3313 71.8156,53.1233 Z" id="Stroke-168" stroke="#C7E4F1" stroke-width="2" stroke-linecap="round" stroke-linejoin="round"></path>
                    <path d="M59.2691,56.6204 C58.9601,56.3554 58.7781,55.9234 58.7781,55.3504 C58.7781,53.8904 59.9621,52.0644 61.4221,51.2724 L70.3921,46.4104 C71.3711,45.8794 72.2251,45.9474 72.6821,46.4894" id="Stroke-170" stroke="#C7E4F1" stroke-width="2" stroke-linecap="round" stroke-linejoin="round"></path>
                    <path d="M59.1813,56.5369 L60.6513,58.0059" id="Stroke-172" stroke="#C7E4F1" stroke-width="2" stroke-linecap="round" stroke-linejoin="round"></path>
                    <polyline id="Stroke-174" stroke="#C7E4F1" stroke-width="2" stroke-linecap="round" stroke-linejoin="round" points="72.6183 46.4207 72.6443 46.4467 73.9753 47.7807"></polyline>
                    <polygon id="Fill-176" fill="#E6F5FF" points="72.0548 93.7302 72.0548 96.8372 53.5188 107.4292 33.8438 97.2622 33.8438 68.7972 53.0588 58.3272 55.4748 60.0532 55.4748 85.2512"></polygon>
                    <polygon id="Stroke-178" stroke="#C7E4F1" stroke-width="2" stroke-linecap="round" stroke-linejoin="round" points="55.4752 85.2512 36.2602 95.7222 36.2602 70.5232 55.4752 60.0532"></polygon>
                    <polygon id="Fill-180" fill="#DCF3FF" points="55.4752 85.2512 36.2602 95.7222 53.5192 104.3232 72.0552 93.7302"></polygon>
                    <polygon id="Stroke-182" stroke="#C7E4F1" stroke-width="2" stroke-linecap="round" stroke-linejoin="round" points="55.4752 85.2512 36.2602 95.7222 53.5192 104.3232 72.0552 93.7302"></polygon>
                    <polyline id="Stroke-184" stroke="#C7E4F1" stroke-width="2" stroke-linecap="round" stroke-linejoin="round" points="72.0548 93.7302 72.0548 96.8372 53.5188 107.4292 33.8438 97.2622 33.8438 68.7972 53.0588 58.3272 55.4748 60.0532"></polyline>
                    <path d="M37.8678,69.0471 C37.5578,68.7821 37.3768,68.3501 37.3768,67.7771 C37.3768,66.3171 38.5608,64.4911 40.0208,63.6991 L48.9908,58.8371 C49.9698,58.3061 50.9908,58.5371 51.4478,59.0791" id="Fill-186" fill="#E6F5FF"></path>
                    <path d="M50.4142,65.5496 L41.4452,70.4126 C39.9842,71.2036 38.8002,70.6616 38.8002,69.2006 C38.8002,67.7406 39.9842,65.9146 41.4452,65.1226 L50.4142,60.2596 C51.8742,59.4676 53.0592,60.0106 53.0592,61.4706 C53.0592,62.9316 51.8742,64.7576 50.4142,65.5496" id="Fill-188" fill="#FFFFFF"></path>
                    <path d="M50.4142,65.5496 L41.4452,70.4126 C39.9842,71.2036 38.8002,70.6616 38.8002,69.2006 C38.8002,67.7406 39.9842,65.9146 41.4452,65.1226 L50.4142,60.2596 C51.8742,59.4676 53.0592,60.0106 53.0592,61.4706 C53.0592,62.9316 51.8742,64.7576 50.4142,65.5496 Z" id="Stroke-190" stroke="#C7E4F1" stroke-width="2" stroke-linecap="round" stroke-linejoin="round"></path>
                    <path d="M37.8678,69.0471 C37.5578,68.7821 37.3768,68.3501 37.3768,67.7771 C37.3768,66.3171 38.5608,64.4911 40.0208,63.6991 L48.9908,58.8371 C49.9698,58.3061 50.8238,58.3741 51.2808,58.9161" id="Stroke-192" stroke="#C7E4F1" stroke-width="2" stroke-linecap="round" stroke-linejoin="round"></path>
                    <path d="M37.7799,68.9636 L39.2499,70.4326" id="Stroke-194" stroke="#C7E4F1" stroke-width="2" stroke-linecap="round" stroke-linejoin="round"></path>
                    <polyline id="Stroke-196" stroke="#C7E4F1" stroke-width="2" stroke-linecap="round" stroke-linejoin="round" points="51.2169 58.8474 51.2429 58.8734 52.5739 60.2064"></polyline>
                </g>
            </g>
        </g>
    </g>
</svg>