<?xml version="1.0" encoding="UTF-8"?>
<svg width="86px" height="86px" viewBox="0 0 86 86" version="1.1" xmlns="http://www.w3.org/2000/svg" xmlns:xlink="http://www.w3.org/1999/xlink">
    <!-- Generator: Sketch 46.2 (44496) - http://www.bohemiancoding.com/sketch -->
    <title>@2xMulti-day Tour</title>
    <desc>Created with Sketch.</desc>
    <defs></defs>
    <g id="Page-1" stroke="none" stroke-width="1" fill="none" fill-rule="evenodd">
        <g id="Multi-day-Tour">
            <path d="M81,67 C81,69.7610602 64.2108807,72 43.4996067,72 C22.7891193,72 6,69.7610602 6,67 C6,64.2389398 22.7891193,62 43.4996067,62 C64.2108807,62 81,64.2389398 81,67" id="Fill-4" fill="#C0E0F9"></path>
            <path d="M44,14 C29.648,14 18,25.648 18,40 C18,54.34875 29.648,66 44,66 C58.352,66 70,54.34875 70,40 C70,25.648 58.352,14 44,14 Z" id="Stroke-1" stroke="#128EC2" stroke-width="2" fill="#C0E0F9"></path>
            <path d="M44,14 L44,20.0348235" id="Stroke-3" stroke="#128EC2" stroke-width="2"></path>
            <path d="M62.7280471,21.5420706 L58.4621647,25.8079529" id="Stroke-5" stroke="#128EC2" stroke-width="2"></path>
            <path d="M70.0348235,40 L64,40" id="Stroke-7" stroke="#128EC2" stroke-width="2"></path>
            <path d="M44,66 L44,60" id="Stroke-9" stroke="#128EC2" stroke-width="2"></path>
            <path d="M18,40 L24.0348235,40" id="Stroke-11" stroke="#128EC2" stroke-width="2"></path>
            <path d="M25.4587294,21.1882824 L29.7246118,25.4574588" id="Stroke-13" stroke="#128EC2" stroke-width="2"></path>
            <path d="M44.0016192,24 C37.4988531,24 32,29.7571708 32,36.5769508 C32,38.9719338 33.0265821,41.0938624 33.8199973,42.5084815 C33.8459047,42.570988 33.878289,42.6269148 33.9171502,42.6795518 L43.532047,55.6940475 C43.6745378,55.8815668 43.8979895,56 44.1343948,56 C44.3708002,56 44.5942518,55.8815668 44.7335043,55.6940475 L54.3613547,42.6795518 C54.4002159,42.623625 54.4358386,42.5644083 54.4585076,42.4986121 C55.4688976,40.6859258 56,38.6429526 56,36.5769508 C56,29.7571708 50.5076238,24 44.0016192,24 Z" id="Stroke-15" stroke="#128EC2" stroke-width="2" fill="#FFFFFF"></path>
            <path d="M43.9985606,31 C41.7905721,31 40,32.7934509 40,35.0014394 C40,37.2065491 41.7905721,39 43.9985606,39 C46.2094279,39 48,37.2065491 48,35.0014394 C48,32.7934509 46.2094279,31 43.9985606,31" id="Fill-17" fill="#128EC2"></path>
            <polygon id="Stroke-19" stroke="#128EC2" stroke-width="2" points="64.2818824 56.0209412 50.8715294 56.0209412 23.112 56.0209412 50.8715294 56.0209412"></polygon>
        </g>
    </g>
</svg>