<?xml version="1.0" encoding="UTF-8"?>
<svg width="120px" height="128px" viewBox="0 0 120 128" version="1.1" xmlns="http://www.w3.org/2000/svg" xmlns:xlink="http://www.w3.org/1999/xlink">
    <!-- Generator: Sketch 46.2 (44496) - http://www.bohemiancoding.com/sketch -->
    <title>@2xPublic &amp; Products Liability insurance</title>
    <desc>Created with Sketch.</desc>
    <defs></defs>
    <g id="Account-Management" stroke="none" stroke-width="1" fill="none" fill-rule="evenodd">
        <g id="Step-2---Company-Documents" transform="translate(-660.000000, -1790.000000)">
            <g id="Drag-&amp;-Drop" transform="translate(370.000000, 1704.000000)">
                <g id="Public-&amp;-Products-Liability-insurance" transform="translate(290.000000, 87.000000)">
                    <circle id="Oval-3" fill="#E7F3F9" cx="60" cy="67" r="60"></circle>
                    <ellipse id="Oval-3" fill="#DAEAF2" cx="60" cy="97.5" rx="46" ry="9.5"></ellipse>
                    <g id="option-2-copy" transform="translate(21.000000, 0.000000)" stroke-linecap="round" stroke-width="2" stroke="#C7E4F1" fill="#E7F3F9" stroke-linejoin="round">
                        <polygon id="Stroke-3" points="0.754545455 99.5734153 77.7483636 99.5734153 77.7483636 0.711755233 0.754545455 0.711755233"></polygon>
                    </g>
                    <g id="option-2-copy" transform="translate(26.000000, 5.000000)" stroke-linecap="round" stroke-width="2" stroke="#C7E4F1" fill="#FFFFFF" stroke-linejoin="round">
                        <polygon id="Stroke-3" points="0.657808858 89.6160738 67.7806247 89.6160738 67.7806247 0.64057971 0.657808858 0.64057971"></polygon>
                    </g>
                    <path d="M36,35 L84,35" id="Stroke-6" stroke="#C7E4F1" stroke-width="3" stroke-linecap="round" stroke-linejoin="round"></path>
                    <path d="M43.4969137,46 L84,46" id="Stroke-6-Copy-5" stroke="#C7E4F1" stroke-width="3" stroke-linecap="round" stroke-linejoin="round"></path>
                    <path d="M36,52 L84,52" id="Stroke-6-Copy-6" stroke="#C7E4F1" stroke-width="3" stroke-linecap="round" stroke-linejoin="round"></path>
                    <path d="M36,58 L84,58" id="Stroke-6-Copy-7" stroke="#C7E4F1" stroke-width="3" stroke-linecap="round" stroke-linejoin="round"></path>
                    <path d="M36,64 L84,64" id="Stroke-6-Copy-8" stroke="#C7E4F1" stroke-width="3" stroke-linecap="round" stroke-linejoin="round"></path>
                    <path d="M36,70 L84,70" id="Stroke-6-Copy-9" stroke="#C7E4F1" stroke-width="3" stroke-linecap="round" stroke-linejoin="round"></path>
                    <path d="M66,86.7250648 C66.9973156,86.6141448 68.0526954,85.5961884 68.8964592,84.4950903 L70.2267277,82.415774 C70.7701394,81.2568045 71.1800612,80.2704845 71.0591101,79.1142157 C71.021108,78.7050655 70.8953343,78.0210266 70.4788538,78.0007716 C70.4707518,78.0001929 70.4620711,78 70.4533904,78 C69.7911497,78 68.7560248,79.232466 68.5575262,80.2689412 C68.354205,81.2899841 68.6535926,82.7983034 69.2652923,83.9904524 L69.5729748,84.5213253 C69.889338,85.0033933 70.2618363,85.3963395 70.6744588,85.6280177 C71.1665579,85.9233543 71.6486259,85.986434 72.1156474,85.820922 C72.8151186,85.5726541 73.4995434,84.7711364 73.8591171,83.7799938 C73.8922967,83.6885571 73.9700371,83.6218122 74.065139,83.6023288 C74.1563827,83.5826526 74.2570788,83.6142889 74.3230521,83.6860493 C74.4598213,83.8336212 74.575564,83.9661465 74.67626,84.0822749 C75.1606429,84.640926 75.1598713,84.6438195 75.7385844,84.1883723 C75.9116196,84.0583548 76.0424088,83.9522574 76.1485062,83.8658362 C76.7403368,83.3870476 76.857044,83.4115464 77.5914309,83.7585814 C77.7089097,83.8139449 77.8478008,83.8793395 78.0131199,83.9538006 C79.5220179,84.5778463 80.6564885,84.3488688 81.9717106,84.0865188 C82.5357629,83.9738627 83.1192987,83.8569626 83.7759452,83.7969693" id="Page-1" stroke="#C7E4F1" stroke-width="3" stroke-linecap="round"></path>
                    <path d="M36,76 L56.5060967,76" id="Stroke-6-Copy-10" stroke="#C7E4F1" stroke-width="3" stroke-linecap="round" stroke-linejoin="round"></path>
                    <path d="M69,15 L84.5080624,15" id="Stroke-6-Copy-3" stroke="#C7E4F1" stroke-width="3" stroke-linecap="round" stroke-linejoin="round"></path>
                    <path d="M72,21 L84.7475488,21" id="Stroke-6-Copy-4" stroke="#C7E4F1" stroke-width="3" stroke-linecap="round" stroke-linejoin="round"></path>
                    <path d="M36,85 L48.7475488,85" id="Stroke-6-Copy-11" stroke="#C7E4F1" stroke-width="3" stroke-linecap="round" stroke-linejoin="round"></path>
                    <circle id="Oval-4" fill="#C7E4F1" cx="41" cy="19" r="6"></circle>
                </g>
            </g>
        </g>
    </g>
</svg>