<?xml version="1.0" encoding="UTF-8"?>
<svg width="86px" height="86px" viewBox="0 0 86 86" version="1.1" xmlns="http://www.w3.org/2000/svg" xmlns:xlink="http://www.w3.org/1999/xlink">
    <!-- Generator: Sketch 46.2 (44496) - http://www.bohemiancoding.com/sketch -->
    <title>@2xTransfer</title>
    <desc>Created with Sketch.</desc>
    <defs>
        <path d="M41.0019217,14 C30.7015273,14 22,22.9966864 22,33.6540032 C22,37.3913848 23.6219278,40.7126454 24.8825731,42.9242506 C24.9210074,43.0167219 24.970972,43.1053402 25.0324669,43.1862526 L40.2601396,63.5222316 C40.486902,63.8189104 40.8366542,64 41.2133104,64 C41.5861232,64 41.9358754,63.8227634 42.1587944,63.5222316 L57.4018408,43.1862526 C57.4710226,43.1014872 57.5209872,43.00131 57.5594215,42.9049857 C59.1582887,40.0769053 60,36.8789397 60,33.6540032 C60,22.9966864 51.3023162,14 41.0019217,14 Z" id="path-1"></path>
        <path d="M71.0015572,52 C74.3371399,52 77,54.6597457 77,57.9984428 C77,61.3371399 74.3371399,64 71.0015572,64 C67.6628601,64 65,61.3371399 65,57.9984428 C65,54.6597457 67.6628601,52 71.0015572,52 Z" id="path-2"></path>
    </defs>
    <g id="Page-1" stroke="none" stroke-width="1" fill="none" fill-rule="evenodd">
        <g id="Transfer">
            <path d="M80.08575,66.018 C80.08575,68.789 63.3350218,71.036 42.6711076,71.036 C22.0079782,71.036 5.25725,68.789 5.25725,66.018 C5.25725,63.247 22.0079782,61 42.6711076,61 C63.3350218,61 80.08575,63.247 80.08575,66.018" id="Fill-4" fill="#C0E0F9" opacity="0.5"></path>
            <g id="Stroke-1">
                <use fill="#C0E0F9" fill-rule="evenodd" xlink:href="#path-1"></use>
                <path stroke="#128EC2" stroke-width="2" d="M58.4598547,43.3440176 C58.3861296,43.5153309 58.2990664,43.6682997 58.2020096,43.7860275 L42.9619642,64.1179818 C42.550618,64.6725446 41.903093,65 41.2133104,65 C40.5258612,65 39.8822294,64.6745303 39.4596805,64.121619 L24.2363117,43.7913451 C24.13774,43.6616487 24.0545102,43.5211198 23.9873929,43.3730619 C22.0824211,40.0206714 21,36.9796947 21,33.6540032 C21,22.4529674 30.1404361,13 41.0019217,13 C51.8627568,13 61,22.4522879 61,33.6540032 C61,37.0341488 60.1227473,40.3814571 58.4598547,43.3440176 Z"></path>
            </g>
            <path d="M40.9977994,25 C37.1336058,25 34,28.1370207 34,32.0043997 C34,35.8629793 37.1336058,39 40.9977994,39 C44.8663942,39 48,35.8629793 48,32.0043997 C48,28.1370207 44.8663942,25 40.9977994,25 Z" id="Stroke-3" stroke="#128EC2" stroke-width="2" fill="#FFFFFF"></path>
            <g id="Stroke-5">
                <use fill="#FFFFFF" fill-rule="evenodd" xlink:href="#path-2"></use>
                <path stroke="#128EC2" stroke-width="2" d="M71.0015572,51 C74.890423,51 78,54.1084588 78,57.9984428 C78,61.8888654 74.8899837,65 71.0015572,65 C67.1105754,65 64,61.8894246 64,57.9984428 C64,54.1078999 67.1101358,51 71.0015572,51 Z"></path>
            </g>
            <path d="M72,65 L41,65" id="Stroke-7" stroke="#128EC2" stroke-width="2" fill="#EEF8FF"></path>
        </g>
    </g>
</svg>