<?xml version="1.0" encoding="UTF-8"?>
<svg width="18px" height="20px" viewBox="0 0 18 20" version="1.1" xmlns="http://www.w3.org/2000/svg" xmlns:xlink="http://www.w3.org/1999/xlink">
    <!-- Generator: Sketch 46.2 (44496) - http://www.bohemiancoding.com/sketch -->
    <title>@2xCal_icon</title>
    <desc>Created with Sketch.</desc>
    <defs></defs>
    <g id="Symbols" stroke="none" stroke-width="1" fill="none" fill-rule="evenodd">
        <g id="Date-Picker" transform="translate(-271.000000, -15.000000)">
            <g id="Cal_icon" transform="translate(272.000000, 16.000000)">
                <polygon id="Stroke-1" stroke="#5C5D61" stroke-width="0.8" stroke-linecap="round" stroke-linejoin="round" points="0 18 16 18 16 2 0 2"></polygon>
                <path d="M0,6 L16,6" id="Stroke-3" stroke="#5C5D61" stroke-linejoin="round"></path>
                <path d="M11,0 L11,3" id="Stroke-5" stroke="#5C5D61" stroke-linecap="round" stroke-linejoin="round"></path>
                <path d="M5,0 L5,3" id="Stroke-5-Copy" stroke="#5C5D61" stroke-linecap="round" stroke-linejoin="round"></path>
                <path d="M4,13 L4,13 C3.45010526,13 3,12.5503158 3,12 C3,11.4501053 3.45010526,11 4,11 C4.54989474,11 5,11.4501053 5,12 C5,12.5503158 4.54989474,13 4,13" id="Fill-6-Copy-3" fill="#5C5D61"></path>
                <path d="M8,10 L8,10 C7.45010526,10 7,9.55031579 7,9 C7,8.45010526 7.45010526,8 8,8 C8.54989474,8 9,8.45010526 9,9 C9,9.55031579 8.54989474,10 8,10" id="Fill-6-Copy" fill="#5C5D61"></path>
                <path d="M8,13 L8,13 C7.45010526,13 7,12.5503158 7,12 C7,11.4501053 7.45010526,11 8,11 C8.54989474,11 9,11.4501053 9,12 C9,12.5503158 8.54989474,13 8,13" id="Fill-6-Copy-4" fill="#5C5D61"></path>
                <path d="M12,10 L12,10 C11.4501053,10 11,9.55031579 11,9 C11,8.45010526 11.4501053,8 12,8 C12.5498947,8 13,8.45010526 13,9 C13,9.55031579 12.5498947,10 12,10" id="Fill-6-Copy-2" fill="#5C5D61"></path>
                <path d="M12,13 L12,13 C11.4501053,13 11,12.5503158 11,12 C11,11.4501053 11.4501053,11 12,11 C12.5498947,11 13,11.4501053 13,12 C13,12.5503158 12.5498947,13 12,13" id="Fill-6-Copy-5" fill="#5C5D61"></path>
                <path d="M4,16 L4,16 C3.45010526,16 3,15.5503158 3,15 C3,14.4501053 3.45010526,14 4,14 C4.54989474,14 5,14.4501053 5,15 C5,15.5503158 4.54989474,16 4,16" id="Fill-6-Copy-8" fill="#5C5D61"></path>
                <path d="M8,16 L8,16 C7.45010526,16 7,15.5503158 7,15 C7,14.4501053 7.45010526,14 8,14 C8.54989474,14 9,14.4501053 9,15 C9,15.5503158 8.54989474,16 8,16" id="Fill-6-Copy-7" fill="#5C5D61"></path>
            </g>
        </g>
    </g>
</svg>