<?xml version="1.0" encoding="UTF-8"?>
<svg width="24px" height="24px" viewBox="0 0 24 24" version="1.1" xmlns="http://www.w3.org/2000/svg" xmlns:xlink="http://www.w3.org/1999/xlink">
    <!-- Generator: Sketch 46.2 (44496) - http://www.bohemiancoding.com/sketch -->
    <title>@2xDayTrip</title>
    <desc>Created with Sketch.</desc>
    <defs></defs>
    <g id="Page-1" stroke="none" stroke-width="1" fill="none" fill-rule="evenodd">
        <g id="DayTrip">
            <path d="M14.5467289,20.8777237 C15.1244594,20.7863693 15.7021779,20.6430463 16.2738559,20.4449556 C21.4918552,18.6361309 24.2544082,12.9419957 22.4455769,7.72542408 C20.6381544,2.50885244 14.9425899,-0.253690634 9.72599947,1.55372536 C4.50940899,3.36114135 1.7454472,9.05668528 3.55427846,14.2746657" id="Stroke-1" stroke="#5C5D61"></path>
            <polyline id="Stroke-3" stroke="#5C5D61" stroke-width="1.04342266" transform="translate(3.018703, 13.387170) rotate(-4.000000) translate(-3.018703, -13.387170) " points="0.518702657 13.1974363 3.71770617 14.8871705 5.51870266 11.8871705"></polyline>
            <path d="M9.00078637,14.5 C10.9085301,14.5 12.5,16.1685525 12.5,18.1443978 C12.5,18.746989 12.3454781,19.3419879 12.0727603,19.8259274 C12.0475684,19.8824018 12.0248816,19.9241072 11.9914929,19.9676062 L9.58863573,23.2159529 C9.46019661,23.3938839 9.25445366,23.5 9.03381389,23.5 C8.81438757,23.5 8.61181902,23.3939382 8.48233292,23.2205263 L6.06165678,19.9445827 C6.02741638,19.8894368 6.02741638,19.8894368 6.02089555,19.8732968 C5.69082408,19.2897815 5.5,18.7505674 5.5,18.1443978 C5.5,16.1687828 7.09283466,14.5 9.00078637,14.5 Z" id="Stroke-5" stroke="#5C5D61"></path>
            <path d="M9,17 C8.44755245,17 8,17.4486373 8,18.0006988 C8,18.5513627 8.44755245,19 9,19 C9.55244755,19 10,18.5513627 10,18.0006988 C10,17.4486373 9.55244755,17 9,17" id="Fill-7" fill="#5C5D61"></path>
            <path d="M12.9992803,9 C11.8952861,9 11,9.89672544 11,11.0007197 C11,12.1032746 11.8952861,13 12.9992803,13 C14.1047139,13 15,12.1032746 15,11.0007197 C15,9.89672544 14.1047139,9 12.9992803,9 Z" id="Stroke-9" stroke="#5C5D61"></path>
            <path d="M13,9 L13,5" id="Stroke-11" stroke="#5C5D61" stroke-width="1.04342266"></path>
            <path d="M15,11 L20,11" id="Stroke-13" stroke="#5C5D61" stroke-width="1.04342266"></path>
        </g>
    </g>
</svg>