<?xml version="1.0" encoding="UTF-8"?>
<svg width="13px" height="13px" viewBox="0 0 13 13" version="1.1" xmlns="http://www.w3.org/2000/svg" xmlns:xlink="http://www.w3.org/1999/xlink">
    <!-- Generator: Sketch 46.2 (44496) - http://www.bohemiancoding.com/sketch -->
    <title>@2xInfo_icon Copy</title>
    <desc>Created with Sketch.</desc>
    <defs></defs>
    <g id="Symbols" stroke="none" stroke-width="1" fill="none" fill-rule="evenodd">
        <g id="Information" transform="translate(-15.000000, -16.000000)">
            <g id="Info_icon" transform="translate(15.000000, 16.000000)">
                <path d="M12.5,6.5 C12.5,3.18667199 9.81363728,0.5 6.5,0.5 C3.18705904,0.5 0.5,3.18705904 0.5,6.5 C0.5,9.81363728 3.18667199,12.5 6.5,12.5 C9.81402429,12.5 12.5,9.81402429 12.5,6.5 Z" id="Stroke-1" stroke="#5C5D61" stroke-width="1"></path>
                <polyline id="Stroke-3" stroke="#5C5D61" stroke-width="1" points="5.28085327 5.6875 6.5 5.6875 6.5 8.70368056"></polyline>
                <path d="M8.125,8.9375 L4.875,8.9375" id="Stroke-5" stroke="#5C5D61" stroke-width="1"></path>
                <path d="M6.43951389,3.25 C6.87013889,3.25 7.18159722,3.583125 7.18159722,4.00652778 C7.18159722,4.43083333 6.87013889,4.74409722 6.42958333,4.74409722 C5.98090278,4.74409722 5.6875,4.43083333 5.6875,4.00652778 C5.6875,3.583125 5.98090278,3.25 6.43951389,3.25" id="Fill-7" fill="#5C5D61" fill-rule="evenodd"></path>
            </g>
        </g>
    </g>
</svg>