<?xml version="1.0" encoding="UTF-8"?>
<svg width="24px" height="24px" viewBox="0 0 24 24" version="1.1" xmlns="http://www.w3.org/2000/svg" xmlns:xlink="http://www.w3.org/1999/xlink">
    <!-- Generator: Sketch 46.2 (44496) - http://www.bohemiancoding.com/sketch -->
    <title>@2xMulti-day Tour</title>
    <desc>Created with Sketch.</desc>
    <defs></defs>
    <g id="Page-1" stroke="none" stroke-width="1" fill="none" fill-rule="evenodd">
        <g id="Multi-day-Tour">
            <path d="M12,0.5 C5.65214237,0.5 0.5,5.65214237 0.5,12 C0.5,18.3468852 5.65266995,23.5 12,23.5 C18.3473301,23.5 23.5,18.3468852 23.5,12 C23.5,5.65214237 18.3478576,0.5 12,0.5 Z" id="Stroke-1" stroke="#5C5D61"></path>
            <path d="M12,0 L12,3" id="Stroke-3" stroke="#5C5D61"></path>
            <path d="M20.3993124,3.48671929 L18.5710771,5.31495458" id="Stroke-5" stroke="#5C5D61"></path>
            <path d="M4.82823529,18 L3,19.8282353" id="Stroke-5-Copy" stroke="#5C5D61"></path>
            <path d="M24,12 L21,12" id="Stroke-7" stroke="#5C5D61"></path>
            <path d="M12,24 L12,21" id="Stroke-9" stroke="#5C5D61"></path>
            <path d="M0,12 L3,12" id="Stroke-11" stroke="#5C5D61"></path>
            <path d="M4,4 L5.82823529,5.82964706" id="Stroke-13" stroke="#5C5D61"></path>
            <path d="M19.1031693,18.1207243 L20.9314046,19.9503713" id="Stroke-13-Copy" stroke="#5C5D61"></path>
            <path d="M12.0664232,19.4300382 L16.7789834,13.4583119 C16.7759847,13.4623578 16.7689062,13.4743607 16.7994792,13.415698 C17.2586842,12.6433527 17.5,11.7739749 17.5,10.8954457 C17.5,7.97679592 14.9796117,5.5 12.0008096,5.5 C9.02270924,5.5 6.5,7.97770051 6.5,10.8954457 C6.5,11.7246377 6.79769531,12.5142292 7.36730008,13.4736741 C7.36265679,13.4631714 7.35683115,13.4536008 7.35129093,13.4465657 L12.0664232,19.4300382 Z" id="Stroke-15" stroke="#5C5D61"></path>
            <path d="M11.9609412,9 C10.8781176,9 10,9.87952941 10,10.9623529 C10,12.0437647 10.8781176,12.9232941 11.9609412,12.9232941 C13.0451765,12.9232941 13.9232941,12.0437647 13.9232941,10.9623529 C13.9232941,9.87952941 13.0451765,9 11.9609412,9" id="Fill-17" fill="#5C5D61"></path>
        </g>
    </g>
</svg>