<?xml version="1.0" encoding="UTF-8"?>
<svg width="30px" height="30px" viewBox="0 0 30 30" version="1.1" xmlns="http://www.w3.org/2000/svg" xmlns:xlink="http://www.w3.org/1999/xlink">
    <!-- Generator: Sketch 46.2 (44496) - http://www.bohemiancoding.com/sketch -->
    <title>@2xnumber of days</title>
    <desc>Created with Sketch.</desc>
    <defs></defs>
    <g id="Page-1" stroke="none" stroke-width="1" fill="none" fill-rule="evenodd">
        <g id="number-of-days" stroke="#5C5D61">
            <path d="M6.5,23.5 L23.5,23.5 L23.5,6.5 L6.5,6.5 L6.5,23.5 Z" id="Stroke-1"></path>
            <path d="M6.5292,11.5059882 L23.4703765,11.5059882" id="Stroke-3"></path>
            <path d="M12,4 L12,9" id="Stroke-4"></path>
            <path d="M18,4 L18,9" id="Stroke-5"></path>
            <path d="M10.5545294,16.7473765 L10.5545294,16.7473765 C10.0018235,16.7473765 9.54864706,16.2942 9.54864706,15.7414941 C9.54864706,15.1877294 10.0018235,14.7356118 10.5545294,14.7356118 C11.1072353,14.7356118 11.5604118,15.1877294 11.5604118,15.7414941 C11.5604118,16.2942 11.1072353,16.7473765 10.5545294,16.7473765 Z" id="Stroke-6"></path>
            <path d="M14.9997882,16.7473765 L14.9997882,16.7473765 C14.4470824,16.7473765 13.9939059,16.2942 13.9939059,15.7414941 C13.9939059,15.1877294 14.4470824,14.7356118 14.9997882,14.7356118 C15.5535529,14.7356118 16.0056706,15.1877294 16.0056706,15.7414941 C16.0056706,16.2942 15.5535529,16.7473765 14.9997882,16.7473765 Z" id="Stroke-7"></path>
            <path d="M10.5545294,20.7562941 L10.5545294,20.7562941 C10.0018235,20.7562941 9.54864706,20.3031176 9.54864706,19.7504118 C9.54864706,19.1966471 10.0018235,18.7445294 10.5545294,18.7445294 C11.1072353,18.7445294 11.5604118,19.1966471 11.5604118,19.7504118 C11.5604118,20.3031176 11.1072353,20.7562941 10.5545294,20.7562941 Z" id="Stroke-8"></path>
            <path d="M14.9997882,20.7562941 L14.9997882,20.7562941 C14.4470824,20.7562941 13.9939059,20.3031176 13.9939059,19.7504118 C13.9939059,19.1966471 14.4470824,18.7445294 14.9997882,18.7445294 C15.5535529,18.7445294 16.0056706,19.1966471 16.0056706,19.7504118 C16.0056706,20.3031176 15.5535529,20.7562941 14.9997882,20.7562941 Z" id="Stroke-9"></path>
            <path d="M19.2370941,16.7473765 L19.2370941,16.7473765 C18.6843882,16.7473765 18.2312118,16.2942 18.2312118,15.7414941 C18.2312118,15.1877294 18.6843882,14.7356118 19.2370941,14.7356118 C19.7898,14.7356118 20.2429765,15.1877294 20.2429765,15.7414941 C20.2429765,16.2942 19.7898,16.7473765 19.2370941,16.7473765 Z" id="Stroke-10"></path>
        </g>
    </g>
</svg>