<?xml version="1.0" encoding="UTF-8"?>
<svg width="30px" height="30px" viewBox="0 0 30 30" version="1.1" xmlns="http://www.w3.org/2000/svg" xmlns:xlink="http://www.w3.org/1999/xlink">
    <!-- Generator: Sketch 46.2 (44496) - http://www.bohemiancoding.com/sketch -->
    <title>@2xPassenger</title>
    <desc>Created with Sketch.</desc>
    <defs></defs>
    <g id="Page-1" stroke="none" stroke-width="1" fill="none" fill-rule="evenodd">
        <g id="Passenger" stroke="#5C5D61">
            <path d="M18.7913333,11.28 C18.7913333,13.2746667 17.174,14.8933333 15.178,14.8933333 C13.182,14.8933333 11.5646667,13.2746667 11.5646667,11.28 C11.5646667,9.284 13.182,7.66666667 15.178,7.66666667 C17.174,7.66666667 18.7913333,9.284 18.7913333,11.28 Z" id="Stroke-1"></path>
            <path d="M7.89293333,22.1785333 L7.89293333,22.1785333 C7.89293333,18.1705333 11.1716,14.8932 15.1782667,14.8932 C19.1849333,14.8932 22.4622667,18.1705333 22.4622667,22.1785333 L7.89293333,22.1785333 Z" id="Stroke-3"></path>
            <path d="M26.6142667,12.6928 C26.6142667,14.1848 25.4036,15.3954667 23.9116,15.3954667 C22.4196,15.3954667 21.2089333,14.1848 21.2089333,12.6928 C21.2089333,11.2008 22.4196,9.99013333 23.9116,9.99013333 C25.4036,9.99013333 26.6142667,11.2008 26.6142667,12.6928 Z" id="Stroke-5"></path>
            <path d="M20.0628,16.9962667 C21.0508,16.0082667 22.4134667,15.3962667 23.9121333,15.3962667 C26.9081333,15.3962667 29.3601333,17.8482667 29.3601333,20.8456 L22.3401333,20.8456" id="Stroke-7"></path>
            <path d="M8.81813333,12.6928 C8.81813333,14.1848 7.6088,15.3954667 6.11546667,15.3954667 C4.62346667,15.3954667 3.4128,14.1848 3.4128,12.6928 C3.4128,11.2008 4.62346667,9.99013333 6.11546667,9.99013333 C7.6088,9.99013333 8.81813333,11.2008 8.81813333,12.6928 Z" id="Stroke-9"></path>
            <path d="M9.96386667,16.9962667 C8.97586667,16.0082667 7.61453333,15.3962667 6.11586667,15.3962667 C3.11853333,15.3962667 0.666533333,17.8482667 0.666533333,20.8456 L8.01853333,20.8456" id="Stroke-11"></path>
        </g>
    </g>
</svg>