<?xml version="1.0" encoding="UTF-8"?>
<svg width="50px" height="50px" viewBox="0 0 50 50" version="1.1" xmlns="http://www.w3.org/2000/svg" xmlns:xlink="http://www.w3.org/1999/xlink">
    <!-- Generator: Sketch 46.2 (44496) - http://www.bohemiancoding.com/sketch -->
    <title>@2xphone</title>
    <desc>Created with Sketch.</desc>
    <defs></defs>
    <g id="Account-Management" stroke="none" stroke-width="1" fill="none" fill-rule="evenodd">
        <g id="AM_Thank-you-message" transform="translate(-840.000000, -704.000000)">
            <g id="Group-5" transform="translate(445.000000, 257.000000)">
                <g id="phone" transform="translate(395.000000, 447.000000)">
                    <circle id="Oval-2-Copy" fill="#E7F3F9" cx="25" cy="25" r="25"></circle>
                    <path d="M16,20.551 C16,22.769 17.545,26.481 21.143,30.079 C24.543,33.479 28.463,35 30.841,35 C31.562,35 32.075,34.853 32.364,34.563 L32.517,34.411 C33.166,33.769 33.897,33.044 33.897,32.085 C33.897,32.053 33.896,32.02 33.895,31.988 C33.855,31.23 33.357,30.476 32.371,29.684 C31.287,28.813 30.565,28.441 29.958,28.441 C29.279,28.441 28.862,28.901 28.42,29.388 C28.296,29.526 28.163,29.672 28.013,29.822 C27.969,29.866 27.898,29.917 27.748,29.917 C27.354,29.917 26.345,29.568 24,27.223 C22.988,26.21 22.248,25.349 21.8,24.66 C21.476,24.161 21.307,23.752 21.307,23.48 C21.307,23.364 21.337,23.273 21.4,23.21 L21.592,23.02 C22.196,22.426 22.779,21.851 22.779,20.98 C22.779,20.322 22.447,19.497 21.54,18.368 C20.8,17.447 20.073,17 19.318,17 C18.299,17 17.5,17.841 16.857,18.516 C16.745,18.635 16.634,18.751 16.526,18.859 C16.182,19.203 16,19.788 16,20.551 Z" id="Page-1" stroke="#128EC2"></path>
                </g>
            </g>
        </g>
    </g>
</svg>