<?xml version="1.0" encoding="UTF-8"?>
<svg width="26px" height="92px" viewBox="0 0 26 92" version="1.1" xmlns="http://www.w3.org/2000/svg" xmlns:xlink="http://www.w3.org/1999/xlink">
    <!-- Generator: Sketch 46.2 (44496) - http://www.bohemiancoding.com/sketch -->
    <title>@2xShape</title>
    <desc>Created with Sketch.</desc>
    <defs></defs>
    <g id="Fleet" stroke="none" stroke-width="1" fill="none" fill-rule="evenodd">
        <g id="Fleet_empty-state_visual" transform="translate(-702.000000, -474.000000)" fill-rule="nonzero" fill="#FD7F10">
            <path d="M734.617466,492 C737.165095,492 741.45257,492.155343 747.510958,492.434961 L753.662552,492.807785 C754.501406,492.869922 755.153847,492.900991 755.650946,492.963128 C755.868427,492.963128 756.054838,492.994197 756.24125,493.025266 L756.4898,493.025266 C756.551937,493.025266 756.614074,493.056334 756.738349,493.087403 C756.800486,493.087403 756.862624,493.118472 756.893692,493.14954 C757.111173,493.304884 757.297585,493.460227 757.421859,493.677707 C757.546134,493.864119 757.63934,494.112669 757.63934,494.361218 C757.63934,494.454424 757.63934,494.54763 757.608271,494.609767 C757.577203,494.671904 757.577203,494.76511 757.577203,494.858316 C757.515065,495.01366 757.452928,495.169003 757.328653,495.386484 L756.583006,496.970985 L754.097513,501.755558 C751.145991,507.410054 749.530421,510.579056 749.188665,511.355773 C749.033322,511.697528 748.753704,511.946077 748.411949,512.070352 C748.039125,512.194627 747.69737,512.194627 747.324546,512.070352 C746.951722,511.946077 746.703173,511.728597 746.578898,511.386842 C746.454624,511.076155 746.423555,510.765468 746.54783,510.454782 C747.169203,509.149898 748.815842,505.887689 751.549883,500.637086 L753.041179,497.77877 C746.454624,500.233194 739.899137,503.184716 733.467925,506.602268 C727.005645,510.050889 720.760845,513.872334 714.702457,518.097671 C708.644069,522.323009 703.113848,527.014376 698.018588,532.171773 C692.954397,537.32917 688.822266,542.610841 685.653263,548.016787 C685.49792,548.327474 685.218302,548.513886 684.81441,548.607092 C684.441586,548.700298 684.068762,548.669229 683.727007,548.544955 C683.385251,548.389611 683.167771,548.141062 683.074565,547.799307 C682.95029,547.457552 682.981359,547.115796 683.167771,546.836178 C686.42998,541.24382 690.686386,535.775737 695.936988,530.462997 C701.187591,525.150256 706.904224,520.303546 713.149024,515.953934 C719.393824,511.604322 725.825036,507.689671 732.44266,504.209982 C739.060283,500.730292 745.740045,497.716633 752.450874,495.23114 C750.959579,495.137934 749.250803,495.044728 747.386683,494.920454 C741.390433,494.609767 737.165095,494.485493 734.648534,494.485493 C734.244642,494.485493 733.933955,494.361218 733.654337,494.112669 C733.374719,493.864119 733.250445,493.553433 733.250445,493.211678 C733.250445,492.869922 733.374719,492.559236 733.654337,492.310687 C733.871818,492.124275 734.213573,492 734.617466,492 Z" id="Shape" transform="translate(720.319670, 520.330643) scale(1, -1) rotate(-420.000000) translate(-720.319670, -520.330643) "></path>
        </g>
    </g>
</svg>