<?xml version="1.0" encoding="UTF-8"?>
<svg width="16px" height="16px" viewBox="0 0 16 16" version="1.1" xmlns="http://www.w3.org/2000/svg" xmlns:xlink="http://www.w3.org/1999/xlink">
    <!-- Generator: Sketch 46.2 (44496) - http://www.bohemiancoding.com/sketch -->
    <title>@2xicon</title>
    <desc>Created with Sketch.</desc>
    <defs></defs>
    <g id="Account-Management" stroke="none" stroke-width="1" fill="none" fill-rule="evenodd">
        <g id="Step-1---Company-Details" transform="translate(-642.000000, -1701.000000)">
            <g id="icon" transform="translate(642.000000, 1701.000000)">
                <path d="M15.5,8 C15.5,3.85833565 12.1420509,0.5 8,0.5 C3.85880904,0.5 0.5,3.85880904 0.5,8 C0.5,12.1420509 3.85833565,15.5 8,15.5 C12.1425243,15.5 15.5,12.1425243 15.5,8 Z" id="Stroke-1" stroke="#B2B4BB"></path>
                <polyline id="Stroke-3" stroke="#B2B4BB" points="6.49951172 7 8 7 8 10.7122222"></polyline>
                <path d="M10,11 L6,11" id="Stroke-5" stroke="#B2B4BB"></path>
                <path d="M7.92555556,4 C8.45555556,4 8.83888889,4.41 8.83888889,4.93111111 C8.83888889,5.45333333 8.45555556,5.83888889 7.91333333,5.83888889 C7.36111111,5.83888889 7,5.45333333 7,4.93111111 C7,4.41 7.36111111,4 7.92555556,4" id="Fill-7" fill="#B2B4BB"></path>
            </g>
        </g>
    </g>
</svg>