<?xml version="1.0" encoding="UTF-8"?>
<svg width="24px" height="24px" viewBox="0 0 24 24" version="1.1" xmlns="http://www.w3.org/2000/svg" xmlns:xlink="http://www.w3.org/1999/xlink">
    <!-- Generator: Sketch 46.2 (44496) - http://www.bohemiancoding.com/sketch -->
    <title>@2xTransfer</title>
    <desc>Created with Sketch.</desc>
    <defs></defs>
    <g id="Page-1" stroke="none" stroke-width="1" fill="none" fill-rule="evenodd">
        <g id="Transfer" stroke="#5C5D61">
            <path d="M9.00091029,0.5 C4.40275429,0.5 0.5,4.59001385 0.5,9.43392155 C0.5,10.8331714 0.966528627,12.1546547 1.82802833,13.6938979 C1.83072571,13.7004742 1.83369419,13.7057514 1.83855408,13.7122522 L9.04871832,23.469579 C9.06412348,23.4900027 9.08363355,23.5 9.10104177,23.5 C9.1172736,23.5 9.13346632,23.4917021 9.14692358,23.4733282 L16.3798897,13.6957692 C16.3734782,13.7037297 16.3745777,13.701682 16.407296,13.6307847 C17.1224638,12.3489275 17.5,10.89793 17.5,9.43392155 C17.5,4.58962969 13.5986951,0.5 9.00091029,0.5 Z" id="Stroke-1"></path>
            <path d="M8.9990569,5.5 C10.9328708,5.5 12.5,7.0679972 12.5,9.00188561 C12.5,10.9326829 10.9321902,12.5 8.9990569,12.5 C7.06746922,12.5 5.5,10.9323427 5.5,9.00188561 C5.5,7.06833763 7.0667888,5.5 8.9990569,5.5 Z" id="Stroke-3"></path>
            <path d="M21.0007786,18.5 C19.6071917,18.5 18.5,19.6063958 18.5,20.9992214 C18.5,22.3924276 19.6075724,23.5 21.0007786,23.5 C22.3926266,23.5 23.5,22.3922284 23.5,20.9992214 C23.5,19.6065947 22.3930072,18.5 21.0007786,18.5 Z" id="Stroke-5"></path>
            <path d="M21.5,23.5 L9,23.5" id="Stroke-7"></path>
        </g>
    </g>
</svg>