<?xml version="1.0" encoding="UTF-8"?>
<svg width="30px" height="30px" viewBox="0 0 30 30" version="1.1" xmlns="http://www.w3.org/2000/svg" xmlns:xlink="http://www.w3.org/1999/xlink">
    <!-- Generator: Sketch 46.2 (44496) - http://www.bohemiancoding.com/sketch -->
    <title>@2xVehicle</title>
    <desc>Created with Sketch.</desc>
    <defs></defs>
    <g id="Page-1" stroke="none" stroke-width="1" fill="none" fill-rule="evenodd">
        <g id="Vehicle" stroke="#5C5D61">
            <path d="M7.5001,9.5121 L23.2631,9.5121" id="Stroke-1"></path>
            <path d="M7.5001,16.3139 L23.2631,16.3139" id="Stroke-3"></path>
            <path d="M12.4269,23.0678 L12.4269,24.6458 C12.4269,25.1178 12.0449,25.5008 11.5729,25.5008 L10.4899,25.5008 C10.0189,25.5008 9.6359,25.1178 9.6359,24.6458 L9.6359,23.0678" id="Stroke-5"></path>
            <path d="M21.1266,23.0678 L21.1266,24.6458 C21.1266,25.1178 20.7446,25.5008 20.2726,25.5008 L19.1896,25.5008 C18.7176,25.5008 18.3356,25.1178 18.3356,24.6458 L18.3356,23.0678" id="Stroke-7"></path>
            <path d="M19.714,20.811 C19.124,20.811 18.672,20.326 18.672,19.77 C18.672,19.214 19.158,18.728 19.714,18.728 C20.304,18.728 20.79,19.214 20.79,19.77 C20.79,20.326 20.269,20.811 19.714,20.811 Z" id="Stroke-9"></path>
            <path d="M11.0314,20.811 C10.4414,20.811 9.9894,20.326 9.9894,19.77 C9.9894,19.214 10.4764,18.728 11.0314,18.728 C11.5874,18.728 12.0734,19.214 12.0734,19.77 C12.0734,20.326 11.6214,20.811 11.0314,20.811 Z" id="Stroke-11"></path>
            <path d="M12.8121,7.7572 L17.9161,7.7572" id="Stroke-13"></path>
            <path d="M23.1544,23.0678 L7.6084,23.0678 C7.5484,23.0678 7.5004,23.0198 7.5004,22.9608 L7.5004,7.6078 C7.5004,6.4488 8.4484,5.5008 9.6084,5.5008 L21.1544,5.5008 C22.3144,5.5008 23.2624,6.4488 23.2624,7.6078 L23.2624,22.9608 C23.2624,23.0198 23.2144,23.0678 23.1544,23.0678 Z" id="Stroke-15"></path>
        </g>
    </g>
</svg>