<?xml version="1.0" encoding="UTF-8"?>
<svg width="20px" height="20px" viewBox="0 0 20 20" version="1.1" xmlns="http://www.w3.org/2000/svg" xmlns:xlink="http://www.w3.org/1999/xlink">
    <!-- Generator: Sketch 46.2 (44496) - http://www.bohemiancoding.com/sketch -->
    <title>@2xHelp</title>
    <desc>Created with Sketch.</desc>
    <defs></defs>
    <g id="Page-1" stroke="none" stroke-width="1" fill="none" fill-rule="evenodd">
        <g id="Help">
            <path d="M19.5,10 C19.5,4.75280904 15.247191,0.5 10,0.5 C4.75280904,0.5 0.5,4.75280904 0.5,10 C0.5,15.247191 4.75280904,19.5 10,19.5 C15.247191,19.5 19.5,15.247191 19.5,10 Z" id="Stroke-5" stroke="#303133"></path>
            <path d="M7.56147368,7.98557895 C7.56147368,6.61610526 8.69094737,5.50978947 10.0688421,5.54768421 C11.3414737,5.58347368 12.4025263,6.64452632 12.4372632,7.91610526 C12.4614737,8.76557895 12.0498947,9.52031579 11.4109474,9.97505263 C10.5362105,10.5950526 10.0004211,10.534 10.0004211,11.6055789 L10.0004211,13.1508421" id="Stroke-1" stroke="#303133" stroke-linejoin="round"></path>
            <path d="M10.6314737,14.8745263 C10.6314737,15.2229474 10.3483158,15.5061053 9.99989474,15.5061053 C9.65147368,15.5061053 9.36936842,15.2229474 9.36936842,14.8745263 C9.36936842,14.5261053 9.65147368,14.2429474 9.99989474,14.2429474 C10.3483158,14.2429474 10.6314737,14.5261053 10.6314737,14.8745263" id="Fill-3" fill="#303133"></path>
        </g>
    </g>
</svg>